<svg xmlns="http://www.w3.org/2000/svg" viewBox="0 0 784.55 165.15"><defs><style>.cls-1{fill:#ea27c2;}.cls-2{fill:#409;}</style></defs><g id="Layer_2" data-name="Layer 2"><g id="Layer_1-2" data-name="Layer 1"><g id="element-id-74435"><path id="element-id-50251" class="cls-1" d="M72,159.25a13.55,13.55,0,0,1-2.93,3.5,10.29,10.29,0,0,1-3.47,1.79,15.77,15.77,0,0,1-4.66.61q-6.76,0-10-3.91t-3.21-11.78q0-7.86,3.19-11.78t9.83-3.92a15.8,15.8,0,0,1,4.7.65,10.74,10.74,0,0,1,3.49,1.8,10.94,10.94,0,0,1,2.6,3.21l-3.3,2.18a9.82,9.82,0,0,0-1.94-2.45A7.57,7.57,0,0,0,64,137.82a9.44,9.44,0,0,0-3.2-.49q-4.53,0-6.65,3c-1.42,2-2.13,5-2.13,9.11s.7,7,2.09,9.06,3.64,3.06,6.73,3.06a9.38,9.38,0,0,0,4.46-1,9.2,9.2,0,0,0,3.4-3.49Z"/><path id="element-id-94954" class="cls-1" d="M103.9,164.52l-7.69-12.3H91v12.3h-4V134.39H96.3c3.74,0,6.43.69,8,2.07s2.44,3.51,2.44,6.4a10.19,10.19,0,0,1-1.49,5.86,7.51,7.51,0,0,1-4.84,2.87l8.16,12.93Zm-1.27-21.35c0-2-.5-3.36-1.51-4.11a8.35,8.35,0,0,0-4.87-1.12H91v10.71h5a12.05,12.05,0,0,0,4-.53,3.59,3.59,0,0,0,2-1.7,7.07,7.07,0,0,0,.61-3.25Z"/><path id="element-id-76239" class="cls-1" d="M123.15,164.52V134.39h18.42V138H127.18v8.79h12.3v3.66h-12.3v10.38h14.39v3.66Z"/><path id="element-id-72239" class="cls-1" d="M154.25,164.52l10.3-30.13h5.23l10.29,30.13h-4.24l-2.61-7.84H160.94l-2.57,7.84ZM162.16,153H172l-4.9-14.68Z"/><path id="element-id-65840" class="cls-1" d="M201.79,138v26.49h-4V138h-10v-3.64h24V138Z"/><path id="element-id-33990" class="cls-1" d="M225.93,164.52V134.39h18.41V138H230v8.79h12.3v3.66H230v10.38h14.39v3.66Z"/><path id="element-id-45489" class="cls-1" d="M292.22,164.52H279.9V161h4.16V137.81H279.9v-3.42h12.32v3.42h-4.16V161h4.16Z"/><path id="element-id-78703" class="cls-1" d="M325.17,164.52l-13.61-25.86v25.86h-3.87V134.39h5.9l12.47,23.67V134.39h3.88v30.13Z"/><path id="element-id-36516" class="cls-1" d="M367.39,156.27a8.06,8.06,0,0,1-2.77,6.55c-1.85,1.56-4.55,2.33-8.11,2.33a14.53,14.53,0,0,1-6.79-1.43,11,11,0,0,1-4.44-4.47l3.26-2.17a8.45,8.45,0,0,0,7.88,4.5,8.33,8.33,0,0,0,5-1.34,4.27,4.27,0,0,0,1.84-3.66,4,4,0,0,0-.59-2.25,5,5,0,0,0-1.54-1.53,8.71,8.71,0,0,0-2.2-1c-.83-.26-1.69-.5-2.59-.73-1.48-.36-2.86-.74-4.14-1.12a13.18,13.18,0,0,1-3.32-1.49,6.78,6.78,0,0,1-2.21-2.34,7.5,7.5,0,0,1-.8-3.67,8.15,8.15,0,0,1,2.58-6.35q2.58-2.34,7.72-2.34a12.4,12.4,0,0,1,6.53,1.51,11.46,11.46,0,0,1,3.85,3.89l-3.2,2.26a9,9,0,0,0-2.86-3,8,8,0,0,0-4.32-1.07,7.17,7.17,0,0,0-4.58,1.3A4.22,4.22,0,0,0,350,142.1a3.58,3.58,0,0,0,.49,1.94,4,4,0,0,0,1.41,1.31,9.55,9.55,0,0,0,2.27.92c.91.25,1.94.52,3.1.81,1.37.37,2.67.75,3.9,1.15a11.71,11.71,0,0,1,3.23,1.58,7,7,0,0,1,2.19,2.52,8.45,8.45,0,0,1,.8,3.94Z"/><path id="element-id-46018" class="cls-1" d="M402.76,144c0,3.63-.85,6.26-2.56,7.87s-4.47,2.43-8.3,2.43h-4.72v10.21h-4V134.39h8.92q5.64,0,8.17,2.33t2.52,7.29Zm-4.22.09a6,6,0,0,0-1.57-4.61c-1-1-2.83-1.46-5.35-1.46h-4.44v12.62h3.87a12.67,12.67,0,0,0,4.65-.62,4.05,4.05,0,0,0,2.15-2A9,9,0,0,0,398.54,144.1Z"/><path id="element-id-76481" class="cls-1" d="M427.85,164.52H415.53V161h4.16V137.81h-4.16v-3.42h12.32v3.42H423.7V161h4.15Z"/><path id="element-id-79081" class="cls-1" d="M460.28,164.52l-7.68-12.3h-5.25v12.3h-4V134.39h9.37q5.61,0,8.05,2.07t2.44,6.4a10.19,10.19,0,0,1-1.49,5.86,7.54,7.54,0,0,1-4.85,2.87L465,164.52ZM459,143.17c0-2-.5-3.36-1.51-4.11a8.35,8.35,0,0,0-4.87-1.12h-5.29v10.71h5a12,12,0,0,0,4-.53,3.62,3.62,0,0,0,2.06-1.7,7.07,7.07,0,0,0,.61-3.25Z"/><path id="element-id-56296" class="cls-1" d="M479.54,164.52V134.39H498V138H483.57v8.79h12.3v3.66h-12.3v10.38H498v3.66Z"/><path id="element-id-5128" class="cls-1" d="M558.35,159.25a13.55,13.55,0,0,1-2.93,3.5,10.29,10.29,0,0,1-3.47,1.79,15.77,15.77,0,0,1-4.66.61q-6.76,0-10-3.91t-3.21-11.78q0-7.86,3.19-11.78t9.83-3.92a15.75,15.75,0,0,1,4.7.65,10.9,10.9,0,0,1,3.5,1.8,11.1,11.1,0,0,1,2.6,3.21l-3.31,2.18a9.82,9.82,0,0,0-1.94-2.45,7.46,7.46,0,0,0-2.35-1.33,9.44,9.44,0,0,0-3.2-.49q-4.53,0-6.65,3c-1.42,2-2.12,5-2.12,9.11s.69,7,2.09,9.06,3.63,3.06,6.72,3.06a9.42,9.42,0,0,0,4.47-1,9.26,9.26,0,0,0,3.39-3.49Z"/><path id="element-id-68069" class="cls-1" d="M596.44,149.46q0,8.11-3.06,11.9t-9.2,3.79q-6.23,0-9.24-3.85t-3-11.84q0-7.94,3-11.81t9.27-3.89q6.21,0,9.23,3.81T596.44,149.46Zm-4.22,0q0-6.26-1.89-9.19t-6.15-2.94q-4.26,0-6.15,2.94t-1.88,9.19q0,6.28,1.91,9.21t6.12,2.91c2.81,0,4.84-1,6.12-2.89S592.22,153.68,592.22,149.46Z"/><path id="element-id-4869" class="cls-1" d="M629.76,164.52l-13.6-25.86v25.86h-3.88V134.39h5.9l12.47,23.67V134.39h3.88v30.13Z"/><path id="element-id-64455" class="cls-1" d="M669.22,164.52l-13.6-25.86v25.86h-3.88V134.39h5.9l12.47,23.67V134.39H674v30.13Z"/><path id="element-id-23800" class="cls-1" d="M691.2,164.52V134.39h18.42V138H695.23v8.79h12.3v3.66h-12.3v10.38h14.39v3.66Z"/><path id="element-id-52794" class="cls-1" d="M748.69,159.25a13.75,13.75,0,0,1-2.93,3.5,10.39,10.39,0,0,1-3.47,1.79,15.86,15.86,0,0,1-4.66.61q-6.78,0-10-3.91t-3.22-11.78q0-7.86,3.19-11.78t9.83-3.92a15.7,15.7,0,0,1,4.7.65,10.8,10.8,0,0,1,3.5,1.8,10.94,10.94,0,0,1,2.6,3.21l-3.31,2.18a9.6,9.6,0,0,0-1.94-2.45,7.35,7.35,0,0,0-2.35-1.33,9.4,9.4,0,0,0-3.2-.49c-3,0-5.23,1-6.65,3s-2.12,5-2.12,9.11.7,7,2.09,9.06,3.63,3.06,6.73,3.06a9.38,9.38,0,0,0,4.46-1,9.26,9.26,0,0,0,3.39-3.49Z"/><path id="element-id-16619" class="cls-1" d="M774.56,138v26.49h-4V138h-10v-3.64h24V138Z"/></g><g id="element-id-48832"><path id="element-id-67670" class="cls-2" d="M116.42,1.5,66.73,102.7a9.22,9.22,0,0,1-3.47,3.76,9.41,9.41,0,0,1-5.09,1.43,9.28,9.28,0,0,1-5-1.43,9.71,9.71,0,0,1-3.55-3.76L0,1.5H21.29L58.17,77.09,95.2,1.5Z"/><path id="element-id-83944" class="cls-2" d="M230,96.84a9.76,9.76,0,0,1-.73,3.81,9,9,0,0,1-2.05,3,9.68,9.68,0,0,1-6.81,2.75H177.52a59.17,59.17,0,0,1-12.3-1.32,54.66,54.66,0,0,1-12-4.06,51.47,51.47,0,0,1-10.94-7,45.41,45.41,0,0,1-9-10.06,48.91,48.91,0,0,1-6-13.32A59.17,59.17,0,0,1,125.05,54V1.5h19V54a36.55,36.55,0,0,0,2.23,13.61,30.19,30.19,0,0,0,5.67,9.3,27.27,27.27,0,0,0,7.54,5.85,41.31,41.31,0,0,0,7.79,3.15,37.62,37.62,0,0,0,6.51,1.28c1.88.17,3.11.25,3.7.25H211V1.5h19Z"/><path id="element-id-86108" class="cls-2" d="M374.2,106.43H355V43.94L321.3,103.28a8.3,8.3,0,0,1-3.48,3.44,10.13,10.13,0,0,1-4.79,1.17,9.61,9.61,0,0,1-4.65-1.17,8.47,8.47,0,0,1-3.4-3.44L271.1,43.94v62.49h-19V9.62A9.38,9.38,0,0,1,254,3.77,9.32,9.32,0,0,1,259.1.33a10.12,10.12,0,0,1,6,.4,9.12,9.12,0,0,1,2.6,1.54,8.79,8.79,0,0,1,2,2.38L313,79.94,356.35,4.65a9.27,9.27,0,0,1,4.65-4,9.86,9.86,0,0,1,6.18-.36,9.51,9.51,0,0,1,5.05,3.44,9.35,9.35,0,0,1,2,5.85Z"/><path id="element-id-48736" class="cls-2" d="M415.47,106.43h-19V1.5h19Z"/><path id="element-id-59414" class="cls-2" d="M538.55,75.55a33.45,33.45,0,0,1-1.43,10.13,30.23,30.23,0,0,1-3.77,7.94,25,25,0,0,1-5.49,5.86,33.49,33.49,0,0,1-6.51,4,32.87,32.87,0,0,1-6.84,2.27,32.42,32.42,0,0,1-6.55.73H434.57v-19H508q5.49,0,8.53-3.22a12.06,12.06,0,0,0,3-8.63,14.06,14.06,0,0,0-.8-4.83,11.32,11.32,0,0,0-2.31-3.81,10.11,10.11,0,0,0-3.66-2.48,12.46,12.46,0,0,0-4.79-.88H464.2a33.85,33.85,0,0,1-9.95-1.65,29.87,29.87,0,0,1-9.91-5.3A28.92,28.92,0,0,1,436.73,47a31.43,31.43,0,0,1-3-14.49,31.22,31.22,0,0,1,3-14.45A29.18,29.18,0,0,1,454.25,3.15,33.85,33.85,0,0,1,464.2,1.5H529v19H464.2q-5.4,0-8.45,3.3a12.33,12.33,0,0,0-3,8.7q0,5.49,3,8.67t8.45,3.19h43.91a33.79,33.79,0,0,1,6.51.84,32.18,32.18,0,0,1,6.84,2.38,32.6,32.6,0,0,1,6.48,4.06,27.45,27.45,0,0,1,5.45,5.89,29.18,29.18,0,0,1,3.77,7.9,34.16,34.16,0,0,1,1.39,10.1Z"/><path id="element-id-37237" class="cls-2" d="M573.52,44.38h66.81V1.5h19V106.43h-19V63.55H573.52v42.88h-19V1.5h19Z"/><path id="element-id-18514" class="cls-2" d="M784.55,106.43h-19V80.67H698.65v25.76h-19V54a55.18,55.18,0,0,1,4-21.14,49.27,49.27,0,0,1,11-16.61A49.77,49.77,0,0,1,711.16,5.38,55.21,55.21,0,0,1,732.09,1.5H775a9.58,9.58,0,0,1,3.73.73,9.45,9.45,0,0,1,5.12,5.12,9.58,9.58,0,0,1,.73,3.73Zm-85.9-44.78h66.88V20.52H732.09c-.59,0-1.82.09-3.7.26a37.81,37.81,0,0,0-6.51,1.28,40.26,40.26,0,0,0-7.79,3.15,27.23,27.23,0,0,0-7.54,5.85,30.12,30.12,0,0,0-5.67,9.33A36.65,36.65,0,0,0,698.65,54Z"/></g></g></g></svg>