<svg xmlns="http://www.w3.org/2000/svg" viewBox="0 0 785.86 165.65"><defs><style>.cls-1,.cls-2{fill:#fff;}.cls-2{stroke:#fff;stroke-miterlimit:10;}</style></defs><g id="Layer_2" data-name="Layer 2"><g id="Layer_1-2" data-name="Layer 1"><g id="element-id-74435"><path id="element-id-50251" class="cls-1" d="M72.79,159.75a13.55,13.55,0,0,1-2.93,3.5A10.29,10.29,0,0,1,66.39,165a15.77,15.77,0,0,1-4.66.61q-6.76,0-10-3.91T48.54,150q0-7.86,3.19-11.78t9.83-3.92a15.8,15.8,0,0,1,4.7.65,10.74,10.74,0,0,1,3.49,1.8,11,11,0,0,1,2.61,3.21l-3.31,2.18a9.82,9.82,0,0,0-1.94-2.45,7.46,7.46,0,0,0-2.35-1.33,9.44,9.44,0,0,0-3.2-.49q-4.53,0-6.65,3c-1.42,2-2.12,5-2.12,9.11s.69,7,2.09,9.06,3.63,3.06,6.72,3.06a9.45,9.45,0,0,0,4.47-1,9.26,9.26,0,0,0,3.39-3.49Z"/><path id="element-id-94954" class="cls-1" d="M104.7,165,97,152.72H91.77V165h-4V134.89H97.1c3.74,0,6.43.69,8.05,2.07s2.44,3.51,2.44,6.4a10.11,10.11,0,0,1-1.49,5.86,7.51,7.51,0,0,1-4.84,2.87L109.42,165Zm-1.26-21.35c0-2-.51-3.36-1.52-4.11a8.33,8.33,0,0,0-4.86-1.12H91.77v10.71h5a12,12,0,0,0,4-.53,3.65,3.65,0,0,0,2.06-1.7,7.2,7.2,0,0,0,.61-3.25Z"/><path id="element-id-76239" class="cls-1" d="M124,165V134.89h18.41v3.64H128v8.79h12.3V151H128v10.38h14.39V165Z"/><path id="element-id-72239" class="cls-1" d="M155.06,165l10.29-30.13h5.23L180.87,165h-4.24L174,157.18H161.74L159.17,165Zm7.9-11.49h9.79l-4.89-14.68Z"/><path id="element-id-65840" class="cls-1" d="M202.59,138.53V165h-4V138.53h-10v-3.64h24v3.64Z"/><path id="element-id-33990" class="cls-1" d="M226.73,165V134.89h18.41v3.64H230.75v8.79h12.3V151h-12.3v10.38h14.39V165Z"/><path id="element-id-45489" class="cls-1" d="M293,165H280.7v-3.48h4.16V138.31H280.7v-3.42H293v3.42h-4.16v23.23H293Z"/><path id="element-id-78703" class="cls-1" d="M326,165l-13.6-25.86V165h-3.88V134.89h5.9l12.47,23.67V134.89h3.88V165Z"/><path id="element-id-36516" class="cls-1" d="M368.2,156.77a8.07,8.07,0,0,1-2.78,6.55c-1.85,1.56-4.55,2.33-8.11,2.33a14.53,14.53,0,0,1-6.79-1.43,11.1,11.1,0,0,1-4.44-4.47l3.26-2.17a8.45,8.45,0,0,0,7.88,4.5,8.33,8.33,0,0,0,5-1.34,4.27,4.27,0,0,0,1.84-3.66,4.09,4.09,0,0,0-.58-2.25A5.14,5.14,0,0,0,362,153.3a8.71,8.71,0,0,0-2.2-1c-.83-.26-1.69-.5-2.59-.73-1.48-.36-2.86-.74-4.13-1.12a12.87,12.87,0,0,1-3.32-1.49,6.6,6.6,0,0,1-2.21-2.34,7.39,7.39,0,0,1-.81-3.67,8.15,8.15,0,0,1,2.58-6.35q2.58-2.34,7.72-2.34a12.38,12.38,0,0,1,6.53,1.51,11.46,11.46,0,0,1,3.85,3.89l-3.2,2.26a9,9,0,0,0-2.86-3,8,8,0,0,0-4.32-1.07,7.12,7.12,0,0,0-4.57,1.3,4.2,4.2,0,0,0-1.64,3.47,3.67,3.67,0,0,0,.49,1.94,4,4,0,0,0,1.41,1.31,9.72,9.72,0,0,0,2.27.92c.91.25,1.94.52,3.1.81,1.37.37,2.67.75,3.9,1.15a11.71,11.71,0,0,1,3.23,1.58,7,7,0,0,1,2.19,2.52,8.44,8.44,0,0,1,.81,3.94Z"/><path id="element-id-46018" class="cls-1" d="M403.56,144.51c0,3.63-.85,6.26-2.55,7.87s-4.48,2.43-8.31,2.43H388V165h-4V134.89h8.93c3.75,0,6.48.78,8.16,2.33s2.52,4,2.52,7.29Zm-4.22.09a6,6,0,0,0-1.57-4.61c-1-1-2.83-1.46-5.35-1.46H388v12.62h3.87a12.67,12.67,0,0,0,4.65-.62,4.05,4.05,0,0,0,2.15-2A9,9,0,0,0,399.34,144.6Z"/><path id="element-id-76481" class="cls-1" d="M428.66,165H416.33v-3.48h4.16V138.31h-4.16v-3.42h12.33v3.42H424.5v23.23h4.16Z"/><path id="element-id-79081" class="cls-1" d="M461.08,165l-7.68-12.3h-5.25V165h-4V134.89h9.36c3.74,0,6.43.69,8.05,2.07s2.44,3.51,2.44,6.4a10.19,10.19,0,0,1-1.49,5.86,7.54,7.54,0,0,1-4.84,2.87L465.81,165Zm-1.26-21.35c0-2-.5-3.36-1.51-4.11a8.35,8.35,0,0,0-4.87-1.12h-5.29v10.71h5a12.05,12.05,0,0,0,4-.53,3.59,3.59,0,0,0,2-1.7,7.07,7.07,0,0,0,.61-3.25Z"/><path id="element-id-56296" class="cls-1" d="M480.34,165V134.89h18.42v3.64H484.37v8.79h12.3V151h-12.3v10.38h14.39V165Z"/><path id="element-id-5128" class="cls-1" d="M559.15,159.75a13.53,13.53,0,0,1-2.92,3.5,10.44,10.44,0,0,1-3.48,1.79,15.74,15.74,0,0,1-4.65.61q-6.78,0-10-3.91T534.9,150q0-7.86,3.19-11.78t9.83-3.92a15.75,15.75,0,0,1,4.7.65,10.8,10.8,0,0,1,3.5,1.8,11.1,11.1,0,0,1,2.6,3.21l-3.31,2.18a9.6,9.6,0,0,0-1.94-2.45,7.35,7.35,0,0,0-2.35-1.33,9.4,9.4,0,0,0-3.2-.49c-3,0-5.23,1-6.65,3s-2.12,5-2.12,9.11.69,7,2.09,9.06,3.63,3.06,6.72,3.06a9.42,9.42,0,0,0,4.47-1,9.26,9.26,0,0,0,3.39-3.49Z"/><path id="element-id-68069" class="cls-1" d="M597.24,150q0,8.11-3.06,11.9T585,165.65q-6.22,0-9.24-3.85t-3-11.84q0-7.94,3-11.81t9.28-3.89q6.19,0,9.23,3.81T597.24,150ZM593,150q0-6.26-1.88-9.19T585,137.83q-4.28,0-6.15,2.94T577,150q0,6.28,1.91,9.21t6.13,2.91q4.2,0,6.11-2.89T593,150Z"/><path id="element-id-4869" class="cls-1" d="M630.56,165,617,139.16V165h-3.88V134.89H619l12.48,23.67V134.89h3.87V165Z"/><path id="element-id-64455" class="cls-1" d="M670,165l-13.6-25.86V165h-3.88V134.89h5.9l12.48,23.67V134.89h3.87V165Z"/><path id="element-id-23800" class="cls-1" d="M692,165V134.89h18.42v3.64H696v8.79h12.3V151H696v10.38h14.39V165Z"/><path id="element-id-52794" class="cls-1" d="M749.49,159.75a13.75,13.75,0,0,1-2.93,3.5,10.29,10.29,0,0,1-3.47,1.79,15.81,15.81,0,0,1-4.66.61q-6.76,0-10-3.91T725.24,150q0-7.86,3.19-11.78t9.82-3.92a15.82,15.82,0,0,1,4.71.65,10.74,10.74,0,0,1,3.49,1.8,10.94,10.94,0,0,1,2.6,3.21l-3.31,2.18a9.81,9.81,0,0,0-1.93-2.45,7.51,7.51,0,0,0-2.36-1.33,9.4,9.4,0,0,0-3.2-.49q-4.51,0-6.65,3c-1.41,2-2.12,5-2.12,9.11s.7,7,2.09,9.06,3.64,3.06,6.73,3.06a8.32,8.32,0,0,0,7.86-4.5Z"/><path id="element-id-16619" class="cls-1" d="M775.36,138.53V165h-4V138.53h-10v-3.64h24v3.64Z"/></g><g id="element-id-48832"><path id="element-id-67670" class="cls-2" d="M117.22,2,67.54,103.2A9.25,9.25,0,0,1,64.06,107,9.41,9.41,0,0,1,59,108.39,9.28,9.28,0,0,1,54,107a9.78,9.78,0,0,1-3.55-3.76L.8,2H22.1L59,77.59,96,2Z"/><path id="element-id-83944" class="cls-2" d="M230.78,97.34a9.76,9.76,0,0,1-.73,3.81,9,9,0,0,1-2.05,3,9.68,9.68,0,0,1-6.8,2.75H178.32a59.17,59.17,0,0,1-12.3-1.32,54.83,54.83,0,0,1-12-4.06,51.47,51.47,0,0,1-10.94-7,45.37,45.37,0,0,1-9-10.06,48.63,48.63,0,0,1-6-13.32,59.54,59.54,0,0,1-2.2-16.72V2h19V54.46a36.55,36.55,0,0,0,2.23,13.61,30.19,30.19,0,0,0,5.67,9.3,27.42,27.42,0,0,0,7.54,5.85,41.58,41.58,0,0,0,7.79,3.15,37.62,37.62,0,0,0,6.51,1.28c1.88.17,3.11.25,3.7.25h33.44V2h19Z"/><path id="element-id-86108" class="cls-2" d="M375,106.93H355.83V44.44L322.1,103.78a8.34,8.34,0,0,1-3.47,3.44,10.2,10.2,0,0,1-4.8,1.17,9.57,9.57,0,0,1-4.64-1.17,8.43,8.43,0,0,1-3.41-3.44L271.91,44.44v62.49h-19V10.12a9.44,9.44,0,0,1,1.94-5.85A9.32,9.32,0,0,1,259.9.83a10.12,10.12,0,0,1,6,.4,9.12,9.12,0,0,1,2.6,1.54,8.79,8.79,0,0,1,2,2.38l43.32,75.29L357.15,5.15a9.27,9.27,0,0,1,4.65-4A9.86,9.86,0,0,1,368,.83a9.51,9.51,0,0,1,5,3.44,9.29,9.29,0,0,1,2,5.85Z"/><path id="element-id-48736" class="cls-2" d="M416.27,106.93h-19V2h19Z"/><path id="element-id-59414" class="cls-2" d="M539.35,76.05a33.45,33.45,0,0,1-1.43,10.13,29.92,29.92,0,0,1-3.77,7.94,25.15,25.15,0,0,1-5.48,5.86,33.86,33.86,0,0,1-6.52,4,32.87,32.87,0,0,1-6.84,2.27,32.34,32.34,0,0,1-6.55.73H435.37v-19h73.39q5.49,0,8.53-3.22a12.07,12.07,0,0,0,3-8.63,13.83,13.83,0,0,0-.81-4.83,11.29,11.29,0,0,0-2.3-3.81,10.11,10.11,0,0,0-3.66-2.48,12.55,12.55,0,0,0-4.8-.88H465a33.79,33.79,0,0,1-9.95-1.65,29.81,29.81,0,0,1-9.92-5.3,29,29,0,0,1-7.61-9.59,31.55,31.55,0,0,1-3-14.49,31.35,31.35,0,0,1,3-14.45A29.53,29.53,0,0,1,445.14,9a29.21,29.21,0,0,1,9.92-5.34A33.79,33.79,0,0,1,465,2h64.75V21H465q-5.42,0-8.45,3.3a12.29,12.29,0,0,0-3,8.7q0,5.49,3,8.67T465,44.88h43.9a33.79,33.79,0,0,1,6.51.84,31.8,31.8,0,0,1,6.84,2.38,32.6,32.6,0,0,1,6.48,4.06,27.2,27.2,0,0,1,5.45,5.89A28.89,28.89,0,0,1,538,66a33.83,33.83,0,0,1,1.39,10.1Z"/><path id="element-id-37237" class="cls-2" d="M574.33,44.88h66.8V2h19V106.93h-19V64.05h-66.8v42.88h-19V2h19Z"/><path id="element-id-18514" class="cls-2" d="M785.36,106.93h-19V81.17H699.45v25.76h-19V54.46a55.18,55.18,0,0,1,4-21.14,49.27,49.27,0,0,1,11-16.61A49.87,49.87,0,0,1,712,5.88,55.21,55.21,0,0,1,732.89,2h42.88a9.54,9.54,0,0,1,3.73.73,9.45,9.45,0,0,1,5.12,5.12,9.59,9.59,0,0,1,.74,3.73ZM699.45,62.15h66.88V21H732.89c-.58,0-1.82.09-3.69.26a37.9,37.9,0,0,0-6.52,1.28,40.26,40.26,0,0,0-7.79,3.15,27.37,27.37,0,0,0-7.54,5.85,30.12,30.12,0,0,0-5.67,9.33,36.65,36.65,0,0,0-2.23,13.57Z"/></g></g></g></svg>