<svg xmlns="http://www.w3.org/2000/svg" xmlns:xlink="http://www.w3.org/1999/xlink" viewBox="0 0 1043.65 901.39"><defs><style>.cls-1{fill:url(#linear-gradient);}.cls-2{fill:#e0474d;}.cls-3{fill:#002a87;}.cls-4{fill:#c5404a;}.cls-5{fill:#6e00aa;}.cls-6{fill:#efc0c2;}.cls-7{fill:#131637;}.cls-8{fill:#38287c;}.cls-9{fill:#3bf9fe;}.cls-10{fill:#d5d5d5;}.cls-11{fill:#003590;}.cls-12{fill:#40eafe;}.cls-13{fill:#e8e7f7;}.cls-14{fill:#fdcca8;}.cls-15{fill:#c6414b;}.cls-16{fill:#5248af;}.cls-17{fill:#38297c;}.cls-18{fill:#fecda9;}.cls-19{fill:#c6424c;}.cls-20{fill:#e6e7f7;}.cls-21{fill:#cfdaf6;}.cls-22{fill:#e2e8f7;}.cls-23{fill:#f4f4f4;}.cls-24{fill:#2d2b46;}.cls-25{fill:#43f4f8;}.cls-26{fill:#1b2259;}.cls-27{fill:#fd8594;}.cls-28{fill:#fda18b;}.cls-29{fill:#63688c;}.cls-30{fill:#5146ae;}.cls-31{fill:#0096fe;}.cls-32{fill:#00d9fe;}.cls-33{fill:#005ffe;}.cls-34{fill:#5346ad;}.cls-35{fill:#c9444d;}.cls-36{fill:#5347ae;}.cls-37{fill:#c7404a;}.cls-38{fill:#6f7997;}.cls-39{fill:#8094b7;}.cls-40{fill:#012060;}.cls-41{fill:#051323;}.cls-42{fill:#071424;}.cls-43{fill:#edc0c3;}.cls-44{fill:#e9b8bb;}.cls-45{fill:#a3b1cd;}.cls-46{fill:#002371;}.cls-47{fill:#ca6e74;}.cls-48{fill:#c86169;}.cls-49{fill:#c8666d;}.cls-50{fill:#c96b72;}.cls-51{fill:#ca7178;}.cls-52{fill:#d0afb2;}.cls-53{fill:#d1b5b7;}.cls-54{fill:#cfa5a8;}.cls-55{fill:#d1b6b8;}.cls-56{fill:#ca7278;}.cls-57{fill:#d0abae;}.cls-58{fill:#d2c0c1;}.cls-59{fill:#d0a8ab;}.cls-60{fill:#d1b4b6;}.cls-61{fill:#d0a9ac;}.cls-62{fill:#d3c8c9;}.cls-63{fill:#d4d3d4;}.cls-64{fill:#d2bcbe;}.cls-65{fill:#d2b9ba;}.cls-66{fill:#d2bdbe;}.cls-67{fill:#d4cecf;}.cls-68{fill:#d1afb1;}.cls-69{fill:#d4cccc;}.cls-70{fill:#d1b8b9;}.cls-71{fill:#d2bfc0;}.cls-72{fill:#d3c3c4;}.cls-73{fill:#d3caca;}.cls-74{fill:#d1bcbe;}.cls-75{fill:#3d2c7c;}.cls-76{fill:#4bcbda;}.cls-77{fill:#4bd6e1;}.cls-78{fill:#6aa5b6;}.cls-79{fill:#343434;}.cls-80{fill:#343435;}.cls-81{fill:#f6a37e;}.cls-82{fill:#de9679;}.cls-83{fill:#fdcba8;}.cls-84{fill:#1aa7f3;}.cls-85{fill:#3cf8fd;}.cls-86{fill:#fbfcfd;}.cls-87{fill:#f5f4f8;}.cls-88{fill:#f6f5f8;}.cls-89{fill:#031122;}.cls-90{fill:#081628;}.cls-91{fill:#1a2258;}.cls-92{fill:#fbcca9;}.cls-93{fill:#3ef6fb;}.cls-94{fill:#b1bacb;}.cls-95{fill:#01d8fd;}.cls-96{fill:#021224;}.cls-97{fill:#042a77;}.cls-98{fill:#0a93d1;}.cls-99{fill:#f6f6f6;}.cls-100{fill:#e0e2f1;}.cls-101{fill:#26275a;}.cls-102{fill:#271f66;}.cls-103{fill:#3e2979;}.cls-104{fill:#3d2b7c;}.cls-105{fill:#502c74;}.cls-106{fill:#4f2b74;}.cls-107{fill:#dc5258;}.cls-108{fill:#f1d6d7;}.cls-109{fill:#333;}.cls-110{fill:#fca47c;}.cls-111{fill:#3c297a;}.cls-112{fill:#50f1f4;}.cls-113{fill:#3bf6fc;}.cls-114{fill:#171939;}.cls-115{fill:#1da5f2;}.cls-116{fill:#1a1c3a;}.cls-117{fill:#c4404c;}.cls-118{fill:#46f0f6;}.cls-119{fill:#3ff3fa;}.cls-120{fill:#e0bfac;}.cls-121{fill:#98f7fa;}.cls-122{fill:#e0484e;}.cls-123{fill:#3a297b;}.cls-124{fill:#32328e;}.cls-125{fill:#de464d;}.cls-126{fill:#a03e51;}.cls-127{fill:#3240b9;}.cls-128{fill:#c5414a;}.cls-129{fill:#1da4f6;}.cls-130{fill:#0b1954;}.cls-131{fill:#0f1d7a;}.cls-132{fill:#df474e;}.cls-133{fill:#3af2fb;}.cls-134{fill:#28b8df;}.cls-135{fill:#191b3b;}.cls-136{fill:#011f5f;}.cls-137{fill:#facbaa;}.cls-138{fill:#fccdab;}.cls-139{fill:#d0e6fb;}.cls-140{fill:#4b5496;}.cls-141{fill:#070713;}.cls-142{fill:#757a99;}.cls-143{fill:#1da0ee;}.cls-144{fill:#01d7fd;}.cls-145{fill:#0086e1;}.cls-146{fill:#03d4fb;}.cls-147{fill:#08c9f5;}.cls-148{fill:#06ccf6;}.cls-149{fill:#041125;}.cls-150{fill:#2d2e9d;}.cls-151{fill:#19255c;}.cls-152{fill:#38f5fe;}.cls-153{fill:#1a245a;}.cls-154{fill:#1a2359;}.cls-155{fill:#19245a;}.cls-156{fill:#3af7fe;}.cls-157{fill:#003998;}.cls-158{fill:#1d2b3e;}.cls-159{fill:#d2c0c2;}.cls-160{fill:#d3c4c5;}.cls-161{fill:#d4cdce;}.cls-162{fill:#d3c7c8;}.cls-163{fill:#d4ced0;}.cls-164{fill:#d2bfc1;}.cls-165{fill:#d0adaf;}.cls-166{fill:#d3c0c2;}.cls-167{fill:#3ad1e5;}.cls-168{fill:#3ad5e7;}.cls-169{fill:#0584f1;}.cls-170{fill:#edbec1;}.cls-171{fill:#011a58;}.cls-172{fill:#0344a1;}.cls-173{fill:#aa3a52;}.cls-174{fill:#fefdfd;}.cls-175{fill:#39287b;}.cls-176{fill:#021f5f;}.cls-177{fill:#4e4bb1;}.cls-178{fill:#4f49b0;}.cls-179{fill:#4e4ab1;}.cls-180{fill:#4b50b4;}.cls-181{fill:#4b4fb3;}.cls-182{fill:#4d4bb1;}.cls-183{fill:#4b4eb3;}.cls-184{fill:#4a51b4;}.cls-185{fill:#4c4db2;}.cls-186{fill:#4a50b4;}.cls-187{fill:#4755b6;}.cls-188{fill:#0ac6f3;}.cls-189{fill:#337aca;}.cls-190{fill:#0ebeef;}.cls-191{fill:#3772c6;}.cls-192{fill:#2691d7;}.cls-193{fill:#3d68c1;}.cls-194{fill:#f8a47e;}.cls-195{fill:#ef7d68;}.cls-196{fill:#5ef6fa;}.cls-197{fill:#61f4f9;}.cls-198{fill:#61f7fb;}.cls-199{fill:#51f8fc;}.cls-200{fill:#4ff8fd;}.cls-201{fill:#86d3d7;}.cls-202{fill:#f29e77;}.cls-203{fill:#857bae;}.cls-204{fill:#392c7d;}.cls-205{fill:#635f8b;}.cls-206{fill:#f9f9fb;}.cls-207{fill:#141736;}.cls-208{fill:#454284;}.cls-209{fill:#796188;}.cls-210{fill:#49f8fd;}.cls-211{fill:#fccba8;}.cls-212{fill:#3a2c7e;}.cls-213{fill:#392a7d;}.cls-214{fill:#3d2f7f;}.cls-215{fill:#55f9fd;}.cls-216{fill:#3ef5fb;}.cls-217{fill:#4cf9fd;}.cls-218{fill:#51f7fc;}.cls-219{fill:#48f8fc;}.cls-220{fill:#3d3382;}.cls-221{fill:#44428b;}.cls-222{fill:#3e3684;}.cls-223{fill:#5ff8fc;}.cls-224{fill:#5af8fc;}.cls-225{fill:#59f9fd;}.cls-226{fill:#59f8fc;}.cls-227{fill:#4af8fc;}.cls-228{fill:#54f8fc;}.cls-229{fill:#4bf8fc;}.cls-230{fill:#4df8fc;}.cls-231{fill:#52f8fc;}.cls-232{fill:#56f8fc;}.cls-233{fill:#57f9fd;}.cls-234{fill:#f6d0d1;}.cls-235{fill:#f6cfd1;}.cls-236{fill:#f2b6b8;}.cls-237{fill:#f7d4d6;}.cls-238{fill:#f8d8da;}.cls-239{fill:#311f77;}.cls-240{fill:#0322c0;}.cls-241{fill:#0525c4;}.cls-242{fill:#867cae;}.cls-243{fill:#bed0ec;}.cls-244{fill:#bfd3ee;}.cls-245{fill:#c0d4ef;}.cls-246{fill:#bed1ed;}.cls-247{fill:#bccfeb;}.cls-248{fill:#baceeb;}.cls-249{fill:#c2d6f1;}.cls-250{fill:#b1bfe0;}.cls-251{fill:#b3c4e4;}.cls-252{fill:#c3d7f2;}.cls-253{fill:#bdcfec;}.cls-254{fill:#bbcdea;}.cls-255{fill:#bcceeb;}.cls-256{fill:#bccdeb;}.cls-257{fill:#2594d8;}.cls-258{fill:#3674c7;}.cls-259{fill:#321d75;}</style><linearGradient id="linear-gradient" x1="28.53" y1="676.7" x2="1043.65" y2="676.7" gradientUnits="userSpaceOnUse"><stop offset="0" stop-color="#9515ff"/><stop offset="1" stop-color="#50007f"/></linearGradient></defs><g id="Layer_2" data-name="Layer 2"><g id="Layer_1-2" data-name="Layer 1"><path class="cls-1" d="M525.83,452.3c283.51,6.45,527.69,146.17,517.51,188S768,630,752.34,686.3c-14.6,52.59,245.58,132.87,234,185-14,63.21-408.71,9.65-524-6-156.72-21.27-276.15-48.61-369-144-32.78-33.68-70.83-72.77-64-116C45.94,499.91,317.36,447.56,525.83,452.3Z"/><path class="cls-2" d="M408.14,738.7c-.8.29-.9.93-.8,1.66-8.26,4.9-19.1,3.17-28.42,3.49-43.21.06-86.42.12-129.64,0-18.77-.06-33.72-8.18-43.32-24.35-14.22-24-27.56-48.43-41.06-72.79-48.18-86-96.13-172.19-144.54-258.08-4.69-8-7.88-19,1.82-24.69l-.09.07c3-2.57,8.26-4.76,10.13.12,3,4.21,8.12,4.12,11.09-.13,1-1.42,1.21-3.7,3.74-3.5,43.44-.58,86.87-.42,130.3-.44,12.63,0,12.69.07,12.69,12.84-.59,9.6,3.36,19.44-10.5,17.79q-68.94.06-137.89,0c-7.93,0-8,.13-4.14,7.21C50,420.15,62,442.62,74.57,464.77q58.63,105.68,117.89,211c2.22,4.45,5.34,6.29,10.41,6.11,36.08-1.27,72.18-1,108.27-1,20.45.19,40.92,0,61.38.07,4.48-.15,4.87-.7,2.7-4.52-37.73-68.19-76-136.08-114.12-204.08-3.31-4.46-2.72-10,2.22-12.9,3.72.8,2.88,4.87,4.92,6.88l-.05-.06c2.14,3.32,4.43,6.57,5.72,10.37l0-.05c1.23,1.43,1.84,3.22,2.8,4.81l-.06-.08c2.43,2.37,3,5.77,4.76,8.54l-.06-.08c3.44,4.7,5.8,10,8.5,15.14l-.07-.09a39.74,39.74,0,0,1,5.75,10.37l-.05-.06c3.74,4.53,5.54,10.15,8.52,15.11l-.05-.07a32.68,32.68,0,0,1,4.75,8.52l-.05,0c12.23,21.14,24.54,42.27,35.78,63.94l0-.06c3.52,4.65,5.66,10.07,8.5,15.1l0,0a96.69,96.69,0,0,1,7.5,13.26l-.07-.08c3.58,4.63,5.73,10.06,8.54,15.12l-.07-.09c2,2.16,2.79,4.93,3.92,7.52,2.44,3.72,5.16,7.22,6.49,11.56a1.31,1.31,0,0,0,.71,1.62c3.66,3.77,5.27,8.75,7.78,13.19l-.06-.07c7.76,12.33,14.24,25.44,21.51,38.1C413.92,726.5,413.62,732.58,408.14,738.7Z"/><path class="cls-3" d="M669.64,196l-.18.27c1.24,1.17,1.27,2.7,1.2,4.22-.23,12.17.5,24.32.85,36.48.12,4.25,2.24,7.73,3.1,11.67,2.22,10.18,4.72,20.31,5.12,30.8,1.09,10.14-.67,20.44,1.82,30.54,2.41,8.52-8.59,14.92-14.06,7.71a15.31,15.31,0,0,0-7.88-5.15c-2.11-3.51,6.78,1,3.32-10.42-4.7-19.13-8.52-38.47-13.1-57.63-.66-2.79-2-5.74,0-8.59,4,1.06,2,4.61,3.09,6.53-2.42-15.61-1.86-31.83-3.27-47.92-.46-5.13-.54-10.3-.56-15.41,0-4.85,4-7.82,7.41-10.8.34-.27.7-.52,1.07-.76s0,.28.35-.24c0,0-.26.15-.45.17-6.61,5.25-17.39,6.41-19,16-2.19,16-3.92,32.18-6.64,48.19,5.84,20,2.22,40.32-.5,60.48-2.26,9.23-1,19.23-4.33,28.13-6.53,1.94-11.7-.63-16.37-4.91-.76-50.66-4.6-101.83-3-152.69-.1-3,1.43-4.67,3.93-5.75,13.22-5.67,26.76-9.94,41.4-8.89,4.45.18,16.73,1.61,15.36,8.15C670,169.39,668.68,182.71,669.64,196Z"/><path class="cls-4" d="M16.13,373.06c2.07,4,1.57,8.72,4.07,12.68,3.5,5.54,6.46,11.42,9.67,17.14,41.64,73.7,82.78,147.67,124.25,221.46,9.62,17.17,19,34.5,28.76,51.57,15.8,25.52,26.77,66.15,62.79,66.47,49.34.43,98.68.16,148,.17a29.25,29.25,0,0,0,10.87-2.46c2.95-2.21,1.87,2.92,1.22,4.4-3.06,9.38-13.46,12.28-22.34,11.81-46.5,0-93-.11-139.5.06-31,0-43.47-19.63-55.47-44.91l0,0A62.32,62.32,0,0,1,181,698.22l.06.08c-4.91-7.57-9-15.62-13.23-23.57l.06.08c-9.55-16-18.65-32.4-27.35-48.92l0,.07c-1.73-2-2.41-4.52-3.81-6.66l.06.07c-4.29-7.12-8.57-14.26-12.21-21.75l.08.08c-7-11.67-13.78-23.51-19.93-35.68l0,0c-3.21-4-5.12-8.75-7.6-13.18-2.82-5-6-9.87-8.34-15.15l.07.09c-3.89-4.74-6.06-10.49-9.1-15.73-6.14-11-12.58-21.94-18.24-33.22l.06.08a239.92,239.92,0,0,1-12.25-21.72l.07.09c-5.38-8.92-10.61-17.93-15.16-27.3l.06.07c-3.68-4.56-5.85-10-8.54-15.09l0,.07C22.34,416.43,20.28,411,17.39,406l.05,0c-5.25-8-12.07-19.33-4.76-28.1l0,0C13.62,376.18,13.73,373.81,16.13,373.06Z"/><path class="cls-2" d="M573.75,265.52a1.53,1.53,0,0,0,1.8.57c16.16,5.86,25.86,17.48,30.15,33.9l-.06-.09c1.42,1.34,0,3.33,1.05,4.74l0,0c2.32,3,1.33,7.12,1.43,10.62.37,3.6-1.53,7-.84,10.66a2.51,2.51,0,0,0,.8,1.13c9.66,5.79,10.84,14.37,8,24.27a5.12,5.12,0,0,1-2,3l.07,0c-3.72,6-9.29,8.56-16.15,8.6-7.52,0-15,.29-22.54-.13-3.06-.17-3.51,1.11-3.48,3.4.06,3.6-.26,7.2.22,10.79.23,1.68.89,3.69-1,4.64s-2.7-1.12-3.73-2.12c-4.49-4.36-9.07-8.66-13.25-13.31-3.2-3.54-6.71-4.1-10.91-2.56-17.53-.31-35.07,0-52.59-.17-9.61-.11-15.81-4.43-19.18-13-.3-8.88-.91-15.88,7.49-21.27l0,.05c2-2,4.62-2.83,7.33-3.44,1.33-.31,3.31,0,3.07-2.42v.07a5.94,5.94,0,0,1,0-5.6l-.05.08c1-6.59,3.38-12.39,9.5-15.95l-.08.07a9.8,9.8,0,0,1,6-3.23c4.19-.63,6.16-2.85,6.76-6.8,3.38-7.07,7.79-13.9,14.53-18.31l0,0c4.09-4.5,9.58-6.5,15.09-8.47l-.06,0C551.94,261.27,562.87,260.92,573.75,265.52Z"/><path class="cls-5" d="M693.23,631.64c10-7.63,22.49-12.14,34.79-14.11a.94.94,0,0,1,1.19,0c.93,2.59,4,5.75,2.36,8.52-2.68,4-.86,8.48-1.48,12.71-.24,1.65,1.53,1.67,2.79,1.54,11.43-1.15,23-1.91,33.11-8.25,2.3-1.15,5.81-6.39,1-6.31-5.74,0-11.47-.33-17.19.35-4.68,1.12-6.2-3.46-4.75-7.14,3.14-4.37,3-9.71,4.47-14.6.51-1.74,0-4.62,3.28-4.4,1.67,2.73.46,5.53,0,8.22-.51,3,0,4.42,3.42,4.27,5.78-.25,11.59,0,17.38-.1,2.72,0,4.38-.92,4.62-4,.82-10.29,1.61-20.6,2.88-30.85,1-8-1-15.55-2.15-23.27-.35-2.44-1.21-4.95.68-7.2,3.05.73,2.49,3.52,3.13,5.58,4.05,13,2.51,26.2,1,39.37-1.29,10-1,20.34-3.62,30.12-2,4.84-2.33,10.08-2.54,15.1-.34,7.93-1.64,15.8-1.25,23.76.22,4.45.69,5,4.93,4.43,6.82-1.41,35.31-2.63,33.26-12.68-1.07-2.5-3.33-2.62-5.53-2.64-4.21,0-8.43-.29-12.63.33-4,1-7.22-1.33-6.3-5.58,2.56-10.27,2.85-20.92,5.09-31.24.37-1.73-.1-3.88,2.27-4.63,0,5,2.7,6.82,7.43,6.82a7.71,7.71,0,0,1,4,.89c1.73,1.13,3.69,1,5.62.95,2.14.83,4.45,1.07,6.6,1.88h0a115.78,115.78,0,0,1,11.29,3.76h0c1.22.69,2.7.86,3.76,1.86.31,0,.62,0,.92,0,34.93,18.87,12.24,37.53-15,45.1-26.55,7.28-54.52,8.27-81.75,4.7-1.41-1.13-3.31.18-4.72-.94h0c-1.74-1.2-3.91.25-5.65-.94h0c-2.78-.78-5.72-.88-8.46-1.88h0c-3.75-1.28-7.68-2-11.28-3.74-1,0-2.14.11-2.83-1-1.91-.89-3.94-1.51-5.63-2.82h0c-1.21-.72-2.71-.85-3.77-1.89-1.37-.78-3-1.14-3.77-2.81a23.7,23.7,0,0,1-5.63-5.63,2.94,2.94,0,0,1-1.87-2.83,11.18,11.18,0,0,1,0-10.34c.34-1.92,1-3.68,2.82-4.71A12.34,12.34,0,0,1,693.23,631.64Z"/><path class="cls-6" d="M413.09,51.74c.08-1-.1-2.15.94-2.86,4.9-13.65,16-7.75,18.39-18.23,3.83-6.9,8.39-13.47,15.48-17.43v0c12.39-9.31,32.42-9.71,47-.94h0c5,2.74,8.64,7,12.24,11.27h0a28.06,28.06,0,0,1,5.24,9.34c1,3,2.7,3.58,5.52,3.41,3.73-.23,7.49-.12,11.24,0,1.28,0,3.08-.78,3.67,1.06.52,1.63-1.42,1.77-2.18,2.65a6.82,6.82,0,0,1-1.88,1.38h0c-4.35,4.34-11.89,6.57-13.17,13.19v0c-1.11,1.42.19,3.31-.94,4.72h0c-1,1.7-.58,2.92,1.23,3.7,3.49,1.51,5.45,4.48,7.22,7.62v0c4.48,7.67-.81,18.36-8.45,21.6h0c-32.8,3.84-67.34.21-100.6,1.43a16.33,16.33,0,0,1-9.37-2.39l0,0a19,19,0,0,1-6.59-7.53l0,0c-4-10.35.94-19.68,11.8-22,1.9-.41,2.65-1.12,2.39-3.11A11.45,11.45,0,0,1,413.09,51.74Z"/><path class="cls-7" d="M204.76,258.62c10.78-4.42,18.81-12,26.22-20.64l-.08.09c7.1-13.16,29.52-14.55,36.37-1.79.64,4.74,4.7,9.33.7,13.9-2.16-1.34-2.14-3.5-2.65-5.38-.36-1.28.17-3.12-1.46-3.63-2.86-.59-3.31,4.93-8.61,4.5-19.6,1.25-6.39,27.43-18,37.1-11,14.14-20.45,3.37-26.15,22-1.27,3.68-1.76,8.19-6.73,9.33-8.32,1.43-15.32-2.35-14.41,9.5,0,5.95,0,11.9,0,17.85,0,8.45-1.4,9.48-9.4,6.95-1.45-.46-3.13-.5-4.29-1.73-7.34-2.6-19.5-8.2-23.36-15.09l.07.1a30.14,30.14,0,0,1-8.6-16l0,.09c-3.6-9.44-1.47-18.52,2.15-27.31,5.8-14.06,18.16-19.11,31.71-22.33l-.09.05C186.75,262.87,195.83,260.93,204.76,258.62Z"/><path class="cls-8" d="M429.9,118.89c2.23,1.53,4.57,2.7,5.59,5.43l-.07-.1a27.6,27.6,0,0,1,7.67,13.27,1.46,1.46,0,0,0,.53,1.77c3.65,6.4,4.1,21.84,0,28a1.42,1.42,0,0,0-.54,1.71,26.13,26.13,0,0,1-8.5,14c-5.27,7.09-12.35,11.37-20.84,13.48l-.35-.1a33.71,33.71,0,0,1-24.14,0l-.39.1a40.45,40.45,0,0,1-25.47-18.9l.07.09c-10.59-15.16-10-37.33,2-51.48l-.08.1C379.54,105.8,411.34,101.64,429.9,118.89Z"/><path class="cls-6" d="M250.87,119.15c7.4-6.66,22.34-11,32-8.45a7.2,7.2,0,0,0,4.65,1,34.93,34.93,0,0,1,15.08,7.52h0a27.45,27.45,0,0,1,6.58,6.59h0c2.78,3.77,5.67,7.48,6.59,12.25a2.77,2.77,0,0,0,2.79,1.85c8.86,1.54,14.89,10.38,15.09,19.11,0,1.23-.05,2.48.93,3.45h0c3.06.73,6.14,1.41,8.46,3.79l0,0c8.76,7.88,5.75,22.73-5.62,26.28h0c-2.16,1.17-4.52,1-6.84,1-14.34,0-28.68.12-43-.08-9.15-.28-12.73,9.9-19.72,14.17h0c-2.05,2.42-3.14,1.83-3.24-1.13-.1-3.25-.16-6.52,0-9.77.15-2.55-.47-3.44-3.3-3.28-6,.33-12.09.11-18.14.1-1.85,0-3.75.22-5.4-.95h0c-10.29-3.43-14.34-15.3-7.53-24.43,2.38-3.21,8.23-4.06,5.64-9.41h0C233.4,143.7,238.73,128.46,250.87,119.15Z"/><path class="cls-6" d="M607.84,234.8c-10.79-1.09-21.91,0-32.71-.24-1.62,0-2.39,1.24-3.28,2.3-4.53,4.24-9.15,8.36-13.09,13.18l0,0c-3,1-2.59-1.46-2.7-2.87a53.58,53.58,0,0,1,0-9.81c.26-2.49-.72-2.86-2.82-2.83-6.09.09-12.17,0-18.26.07a14.67,14.67,0,0,1-10.09-3.32c-8.36-5.87-8.51-19.1.9-25.43,2-1.37,2.19-2.5,1.83-4.93-2.84-14.64,2.32-30.7,14.26-40.1h0a33.69,33.69,0,0,1,11.29-6.6h0a42.68,42.68,0,0,1,28.17-.84,5.81,5.81,0,0,0,4.65,1.79c31.31,16.7,19.9,34.56,22.28,63.8"/><path class="cls-9" d="M806.05,287.64l-.35-.14c-9.87-1.68-19.21-6.07-29-8.32a3.66,3.66,0,0,1-3.1-4q0-17.61,0-35.21c-.1-6,5.44-3,8.61-2,13.31,3.91,26.69,7.57,39.79,12.15l0,0c7.62,1.86,15,4.56,22.64,6.36,1,.24,2.2.32,2.68,1.55,8.95,2.34,18.5,4.58,27.34,8.11h0c3.32.94,6.67,1.77,9.89,3,1.1,1.37,1,2.53-.55,3.5-10.31,6.61-17,16.25-22.41,26.91-.87,1.7-1.47,4.51-4.63,3.11-1.66,0-3.4.32-4.83-.91-7.38-2-14.74-4.09-21.9-6.76l-.32.08C821.86,292.79,813.79,290.74,806.05,287.64Z"/><path class="cls-6" d="M207.18,740.74c11.32,9.77,25.67,15.44,40.8,14.08,45.58-.05,91.15-.26,136.72-.15,9.31,0,16.52-2.64,20.75-11.33a15.23,15.23,0,0,0,3.92,3.23c5.93,4.11,5.69,8.81-.74,12.5A55.56,55.56,0,0,1,388.15,766a299.42,299.42,0,0,1-47.86,6.34c-15.22.29-30.38,1.34-45.6,1.18-7.79-1.47-15.89.66-23.55-.94h0c-18-.88-36.07-2.12-53.6-6.57a58.77,58.77,0,0,1-14.09-3.79h0a36.9,36.9,0,0,1-7.54-3.77l0,0c-5.47-4.32-5.69-6.92-1-11.25h0C198.51,744.12,203.36,743.3,207.18,740.74Z"/><path class="cls-10" d="M282.38,407c-.3.3-.61.59-.92.88-7.13,2-14.43.57-21.63,1l-.12,5.85a1.66,1.66,0,0,1-1.65-1.33c-.84-3.74-3.5-4.16-6.65-3.75-4.94-.89-8.44-2-3.67-6.78-3.75-2.19-9.39-.63-11.58-5.77.38-2.47-.71-4.93-.08-7.42,7.42-6.26,16-10.89,24-16.25,24.11-14.3,4.29-48-18.85-33.91-6.18,3.89-7.28,3.7-11.81-2.1-1.64-5.47.56-10.62,1.38-15.86,1-3.3.59-8.91,4.83-9.75a181.36,181.36,0,0,1,20.46-.14c12.9-.69,27.54,6,30.93,19.33.28,1,1.3,2.42-.57,3.13-2.68-.38-2.12,1.61-2.13,3q0,31.66,0,63.31C284.33,402.9,284.1,405.14,282.38,407Z"/><path class="cls-11" d="M251.52,408.85c5.71-1.23,5.71-1.23,8.19,5.87,0,1-.18,2,.6,2.76,3.21,5.07,3.24,11.14,5.14,16.62,2.37,10.89,6.17,16-1.69,25.72-1.57,2.34-3.91,4.25-4,7.39-8.19,22.13-21.61,42.45-31.65,63.92-4.28.11-9.72-4.47-8.94-8.82a155.76,155.76,0,0,1,21.7-67.48c3.81-6.16,3.81-6.16-1.27-11.26-4.05-4.23-25.49-25.27-23.25-29.82,3.61-2.5,7.9-2.12,11.93-2.83,6.81,3.5,13.29,2.47,19.63-1.34A7,7,0,0,1,251.52,408.85Z"/><path class="cls-12" d="M856.91,302.65c4.59-1.67,4.93-6.52,7-9.91,5.24-8.64,11.16-16.39,20.19-21.35.24-.13,0-1.09,0-1.66a19.66,19.66,0,0,1,10,1.15c10.51,3,20.95,6.45,31.09,10.29.91.92,3.15-.57,3.28,1.78-.78.73-1.44,1.14-.45,2.54,8.28,11.69,13.2,24.89,17,38.58.48,1.73,1.41,3.55,0,5.33-1.88,1-3.64.13-5.41-.36-12.55-3.48-24.87-7.74-37.4-11.28s-24.73-7.5-37.11-11.2C862.13,305.79,858.92,305.26,856.91,302.65Z"/><path class="cls-6" d="M614.3,334.84a31.78,31.78,0,0,0-5.39-5.68c-1.21-.9-2.94-1.22-3.24-3.06a8.52,8.52,0,0,1,5.14-1.39c2.12,0,3.49,0,5.32.1,5.67.49,10.64.92,11.71-1,.31-.55.5-1.65-1-4,.35-.62.68-1.28,1-2a24.4,24.4,0,0,0,2-8v-10a20.72,20.72,0,0,1,10-1c7.48.31,12.78.63,15.6,1a15.28,15.28,0,0,0,5.4-.09,15.08,15.08,0,0,0,2.37-.68c1.32,1.5,1,3.48,1.43,5.24,1.47,6.59,1.41,6.61-4.95,7.61-.67,1.57-2.69,1.44-4.07,3.42,7,2.78,13.55,6.3,21.07,6.72,4.83.27,5.21-.54,3.5-5.5q.46-6,.94-12c2.4,2.09,5.89,1.79,8.34,3.76a39.51,39.51,0,0,1,7.51,3.8h0c16.6,12.65-.2,22.9-13.12,27.22-17.83,6.14-36.2,5.8-54.63,4.52a39,39,0,0,1-6.5-.72c-4.9-1.18-5-1-5.17,3.85,0,.92.19,1.89-.47,2.7v0C618.08,340.24,615.4,336.2,614.3,334.84Z"/><path class="cls-12" d="M869.06,457.79c-.94-.59-4.35-.61-4-2,1.49-1.33,1-2.62.18-4.15a140.58,140.58,0,0,1-7.39-14.14c-1.78-5.13-10.64-3.6-9.43-8.22,10.4-1.62,13.84,11.22,20.5-7.43,2.25-9.24,10-4,16.16-2.82a119.62,119.62,0,0,0,13.22,4q16.85,5.43,33.87,10.27c1.91.8,6.19,1.45,6.73,3.47-3.36,3.8-5,8.6-7.54,12.9a63.51,63.51,0,0,1-19.8,20.83C896.86,468.06,882.87,463.23,869.06,457.79Z"/><path class="cls-2" d="M315.32,350.68c-4.14-8.14-3.64-16.71-.43-25,1.05-1.69,2.47-.53,3.73-.44,4,.3,5.69-1.3,5.59-5.37,0-1.8-1-3.67.47-5.34,14.77-8.58,31-5.11,39.79,8.56,13.51,21.5-6.55,47.15-28.44,42.39l.07.06C326.5,364.35,319.61,359.32,315.32,350.68Z"/><path class="cls-2" d="M566,523.23c-.53,0-1.26-.5-1.48.49A58.8,58.8,0,0,1,516,532.56c-2.11-.55-4.67-1-5.82-3.48.87-4.46,3.9-7.34,7.3-9.94,3.36-.71,6.69.83,10.06.1-2.56-.34-11.21.88-11.47-2.35a2.29,2.29,0,0,1,2.34-1.9c7.45-.2,14.9-.33,22.28-1.46,13.21-10.65,21.67-23.92,22.88-41.22,3.4-3.2,3.2-7.67,4-11.74,1.23-6.54,1.67-6.9,7.89-4.65,14,9.63,9.46,34.57,4.26,48.06a66,66,0,0,1-9.64,15.63C568.93,521,568,522.89,566,523.23Z"/><path class="cls-2" d="M204.91,228.35a1.31,1.31,0,0,0-.64,1.57,9.61,9.61,0,0,1-4.47,5.21c-5.8,3.57-11,8.09-17.2,11l.09-.06c-2.44,2.66-4.91,2.51-7.4.06l.07.05c-6.51-3.3-12.18-7.89-18.25-11.86-5.47-4.34-8.36-12.91-4.31-19l0,.07c2-6.2,10.55-11.55,19.64-8.41l-.09-.05a10.87,10.87,0,0,1,4.79,2.82l-.06,0c2.13,1.59,3.36-.29,4.86-1.22,7.57-4.73,19.75-2.69,23.31,6.95l-.06-.09C207.63,219.71,208.44,224.07,204.91,228.35Z"/><path class="cls-9" d="M824.84,329a4.09,4.09,0,0,0,3.52,1c4.63.68,9,2.34,13.39,3.79l-.07-.05c11.1,1.43,8.19,7.43,7.17,15.76-.46,7.17-1.05,14.32-1,21.52,0,2.66,0,5.5-3.64,6.13a13.05,13.05,0,0,1-4-.17c-12.46-3.75-25-7.42-37.36-11.43-1.87-.6-4.06-.83-4.64-3.29.23-1.39,1.33-2,2.4-2.62,10-5.61,11.54-11.88,12.15-22.69,3.24-3.43,6.33-7,10.63-9.26C824.23,327.75,824.42,328.5,824.84,329Z"/><path class="cls-2" d="M314.32,252.87l1-.91c2.83-1.38,3.88-5.18,7.5-5.49,3.6,1.41,6,4.16,7.94,7.34.21,2.08-1.05,3.37-2.47,4.58l.07-.05a96.13,96.13,0,0,1-28.23,29.2l.08-.06a44,44,0,0,1-12.27,7.6L288,295a41.53,41.53,0,0,1-13.86,6.08c-1.82-.95-2.32-2.88-3.21-4.47-3.31-6-8.11-10.61-13-15.19a2.51,2.51,0,0,1,.09-3.35c8.17.17,15.88-2,23.55-4.49l0,0A175.56,175.56,0,0,0,314.32,252.87Z"/><path class="cls-2" d="M668.23,155.64c-2.3-7.56-2.39-15.35-2.59-23.09-.95-17.34-2.53-34.64-3.12-52-.13-4-1.73-8-.17-12.08,3.1-2.34,4.52.71,6,2.23,15.81,17.58,22.46,50.63,11.85,72.21-.06,1.16-.13,2.32-.19,3.48-1.44,2.17-2,4.83-3.77,6.82l0-.06c-.94,3.79-3.39,4.09-6.51,2.8l-.93.14C668.22,156.47,668,156.32,668.23,155.64Z"/><path class="cls-9" d="M848.36,429.55c.15.27.28.74.48.78,10.2,1.84,11.77,11.27,16.08,18.28a27.53,27.53,0,0,0,2.36,4c3.24,3.66.12,3.13-2,3.28-3.8.43-7.16-1.2-10.63-2.29-9.85-3.28-19.94-5.68-29.73-9.13l.06.05c-5.81-1.9-12-2.6-17.49-5.62-.76-7.07.79-13.9,2.5-20.64.78-3.09,3.56-2.45,5.87-1.73,8.92,2.81,17.64,6.19,26.51,9.12C844.62,426.43,847.29,426.8,848.36,429.55Z"/><path class="cls-9" d="M912.26,469.94c-.83-1.37.14-1.91,1.1-2.51,9.89-6.22,15.81-15.58,20.83-25.77.87-1.77,1-5,4.42-4.59,4.46-.68,8.29,1.26,12.18,2.94l0,0c1.67.69,4,.36,4.65,2.73.23,12.15-1.29,24.23-1.3,36.37.13,2.47-1.92,4.85-4.4,3.44-6-2.52-12.73-3.57-18.68-5.95-3.07-1.08-6.4-1.3-9.31-2.91l0,0c-1.92-.39-3.74-1.15-5.67-1.52C915.09,470.94,912.82,471.9,912.26,469.94Z"/><path class="cls-13" d="M902,316.68c14.63,3.33,28.62,8.83,43.21,12.34.85-.31,1.11.16,1.18.88-1.18,3.25.56,6.29.71,9.44q.93,8.45,1.88,16.92h0c.17,1.53.32,3.1.45,4.7.2,2.34.35,4.63.45,6.84l-25.47-6.62c-1.53-.4-2.83-1.05-3-2.88.49-3.93,1.93-19.35-8.35-32.19A38.93,38.93,0,0,0,902,316.68Z"/><path class="cls-13" d="M847.43,336.49l-.18-.83c.45-.79,1.53-.34,2-1,0-6.94,3-13.14,4.7-19.74h0c1-1.75.91-3.88,1.88-5.65-.54-2.29,1.88-3.6,1.9-5.71,6.39.64,12.3,3.13,18.35,5,6.51,2,13.22,3.39,19.44,6.26-3.31,3-7.87,3.94-10.78,7.83-4.64,6.21-8.52,12.58-9.59,20.38a2,2,0,0,1-.89,1.55,5.19,5.19,0,0,1-4.09-.16C862.68,341.58,854.54,340.51,847.43,336.49Z"/><path class="cls-13" d="M938.5,436.31c-13.66-3.53-27.17-7.53-40.45-12.3.26-.39.65-.83,1.08-.8,7.9.57,11.4-5.09,15-10.58a41.5,41.5,0,0,0,2.16-4.13c2.84-5.71,2.82-5.67-2.83-8.52-1-.52-3.09-.68-1.83-2.83,3.58-1.42,6.63,1,10,1.39,5.64.08,22.49.71,24.35,7.5a6,6,0,0,1-.18,3.26c-1.16,4.48-3.13,11.64-6.23,21.21C936.09,435,939.63,434.48,938.5,436.31Z"/><path class="cls-14" d="M612.39,41.44l-1.71-.07c-.46-.16-.57-.9-.32-1.07,3.53-2.12,2.88-5.77,3.32-9,.34-2,1.9-3.61,1.52-5.76a.94.94,0,0,1,.24-1.39c3.67-.65,7.38.09,11.1-.38,5.34-.54,5.56,5.91,7,9.56-.13.61,1,.28.43.17-.2,0-.35-.74-.19-1.13,1.57-3.88,4.28-4.75,8.6-2.77,4.55,6.76-5.31,8.06-2.81,12.47,1.33,2.41,3.18,3.72,6.07,2.9a2.07,2.07,0,0,1,1.77.23,1.42,1.42,0,0,1-.29,1.82c-.87,4.17-.39,8.36-.18,12.54C643.56,66.06,631.73,68,627.25,62c.64-12.27-15.5.47-11.86-13.92.44-.1,1-.06,1.3-.33,1.14-1.1,3.42-1.84,2.71-3.7-.6-1.6-2.7-.59-4.14-.76C614.36,42.56,613.16,42.34,612.39,41.44Z"/><path class="cls-2" d="M598.29,126.94c-14.36-8.51-21-24.82-24-40.58a1.85,1.85,0,0,1,.44-1.29c4.31-2.32,8.76-3.94,13.77-2.92,1.57,1.32,2,3.2,2.5,5a56.61,56.61,0,0,0,4.88,9.56c1.93,3.14,3.39,3.23,5.6.21,2.68-3.67,3.72-8.18,5.86-12.14,1.15-2.14,1.23-5.13,4.35-5.82,1,1.19.87,2.84.57,4.26-2.56,14.44-4.84,28.92-8,43.25C602.41,128.28,600.38,128.11,598.29,126.94Z"/><path class="cls-8" d="M586,32.5a1.29,1.29,0,0,0,1.64.55c3.61.64,5.3,3.1,6.1,6.41,2.29,7-.24,13.06-3.75,18.93a12.81,12.81,0,0,0-3.89,5.46c-4.3,9.84-7.23-2.05-12.42-1.56-2.27-1.18-4.79-.31-7.12-1-8-.22-8.46-.09-4.25-7.53a35.28,35.28,0,0,0,4.58-20.3c.16-5.6-1.14-10.24,6.11-6.86a2.59,2.59,0,0,0,1.38.08C578.66,27.7,582.34,30,586,32.5Z"/><path class="cls-9" d="M946,330l-.8-.93c-4.38-15.22-9.25-30.58-18.63-43.56-.47-.68-1.88-1.2-1-2.15,5-1.45,10.5.39,14.88,2.89,4.79,1.87,10.75,1.05,14.94,5,.7,12.27-1.47,24.54-1.2,36.85.29,2.43-1.62,5.45-4.26,3.76-1-1.08-2.36-1.11-3.67-1.27C945.7,330.58,945.73,330.06,946,330Z"/><path class="cls-15" d="M19.91,322.35c-5.23,2-9.45,6-14.92,7.51l.08-.05c-5.43.59-6.91-6.16-2.4-8.74,19.93-13.49,47-15.57,67.18-.08,5.68,3.38,4.53,8.51-1.88,8.95C52.46,320.36,37.71,317.22,19.91,322.35Z"/><path class="cls-14" d="M576.6,429.57c-.31-.63-.61-1.26-.91-1.88-1.9-.91-1.19-2.77-1.57-4.23.35-3.25,2.43-6.33,1-9.76l.63-1.14c1.72-1.82-1.26-2.06-1.13-3.34a4.7,4.7,0,0,1,6.31-1.08c3.07,1.95,2.66,5.36,2.6,8.4-.37.63,1,.19.33.18.94-6.23,9.76-2,6.17,3.36-1.2,2.08-3.29,3.57-1.72,6.62,2.35,4.47,7.42,11.47,13,8.17,1-.49,2.11-1.77,3.11.05-1.12,3,.52,6.37-1.46,9.2-5.7,1.84-11.56,1-17.36,1-1.92-6.73-5.31-4.33-10.77-7.15l0,0C573.64,434.81,572.3,431.61,576.6,429.57Z"/><path class="cls-16" d="M54,338.47c-11.34-6.55-23.46-5.7-34.85-.1l0,0c-2.51,2.33-6.67,4.76-9.3,1.21-1.75-2.35-1.13-4.69,1-6.69,13.19-8.79,29-11.29,43.62-4.72,1.26.35,1.33,2.4,2.89,1.91C70.1,333.1,63.92,346.94,54,338.47Z"/><path class="cls-17" d="M619.92,6.68c7.6-8.35,21.29-8.78,28.11-1.81l0,0c7.79,5.12,9.17,12.77,8.39,21.27a1.83,1.83,0,0,1-1.12,1.38,1.41,1.41,0,0,1-1.2-.69c-1-4.36-5.56-3-8.09-4.92-.82-7.3-5.88-9.47-12.23-10.52-3.32-.55-5.51-.3-6.2,3.48a5.72,5.72,0,0,1-3.07,4.49,2.68,2.68,0,0,1-1.35.22c-3-.68-7.38.54-8.33-3.39S616.4,8.87,619.92,6.68Z"/><path class="cls-18" d="M351,228.52,350,232.1c-1.11,1.59-1.11,1.62.09,1.8,2.31.35,2.64,1.62,1.14,3.12-4.08,4-11.09,12.63-17,12.71-3.49-1.79-6.57-4-8.39-7.67a69.77,69.77,0,0,1,4.53-15.5h0c3.24-1.56,3.08,1.76,4.37,3.09,2.43-1.25,2.46-4.17,4.14-5.9l0,0c1.16-1.59,2.15-3.61,4.65-1.86l0,0c1.29,2.4-.32,3.93-1.47,5.69a11.85,11.85,0,0,1,4.5-4.19c4.86-.24.8,5.35-.62,7C347.34,229.33,348.25,226.46,351,228.52Z"/><path class="cls-19" d="M47.4,352.54c-5.63-4.56-12.61-4.7-19-2-2.6,2.34-4.78,4.34-8.25,2-2.56-2.5-1.48-5.84,1.37-7.69,9.85-7.1,21.73-7,31.11.45,2.09,1.66,3.07,3.82,1.58,6.13C52.52,354.07,50.06,354.6,47.4,352.54Z"/><path class="cls-20" d="M912.26,469.94l3.83,1.89a.56.56,0,0,1-1,.11l-7.56-1c-7.32,2.14-14.55,2.38-21.62-1-2.52-.69-5-1.41-6.58-3.77-3.49-2.73-6.88-5.6-10.31-8.43C883.77,460.72,897.57,467.11,912.26,469.94Z"/><path class="cls-21" d="M574.73,27.37c-13.2-4.35.94,8-14.11,32.62,2.08,1.38,4.63-.15,6.72,1.06-2.72,1.44-5.81-.3-8.54,1-2.67,2.41-9.1,6.48-6.84-.41,9.61-7.62,13.27-19.51,12-31.49-.79-8.31-3.86-7.2-10-10.3-.58-4.56,8-3.13,10.45-1.94h0c3,1.06,3.36,4.09,4.72,6.37l4.71,2a.77.77,0,0,1,1,0A1,1,0,0,1,574.73,27.37Z"/><path class="cls-22" d="M923.54,281c-16.26-5.17-33-8.87-48.93-14.9,4.95-.26,9.21,3,14.16,2.75C902.8,263.86,914,271.3,923.54,281Z"/><path class="cls-23" d="M552.05,62c0,.67,2.65-.88,1,1.15-.35.42-1.08.52-1,1.54l3,.22c-7.55,2.85-12.36-1.49-14-9.35C537.23,45.38,547.39,9.4,561.62,16a2.82,2.82,0,0,1,2.81,1.91c-2.22.08-4.37.81-6.67.07a2.73,2.73,0,0,0-3.6,1.94c0,2-1.62,2.95-2.66,4.24C543.92,33,538.85,56.38,552.05,62Z"/><path class="cls-24" d="M259,243.61a9.06,9.06,0,0,1,1.29-1.88c1.22-1.09,2.1-3.21,4-2.69,2.16.59,2,2.82,2.23,4.66s.7,3.55,1.21,6c1.74-5.05-.64-9-1.11-13.1,1.05,0,1.33.74,1.6,1.53a1.42,1.42,0,0,0,.64,1.71c3.7,5.49,2.69,15.59.33,21.47l0-.05c-.89,2.89-2.92,12.53-6.45,12.52-1.49-.57.69-3.75-2.6-3.32s-6,1.3-6.2,5.29a1.85,1.85,0,0,1-1,.84,2,2,0,0,1-1.43-1.34c-1.64-8.4,2.68-6.84,9.07-8.62,6.7-2.57-5.33-5.51,1.81-8.8,3.62-1.93,4.27-11,1.37-13.9C262.23,242.39,260.47,245,259,243.61Z"/><path class="cls-8" d="M626.44,498.18c1,20.35,1.34,40.7.75,61.09-3.85,0-3.1-7.13-3.15-9.8.5-13.45-.39-26.9.13-40.35a46.8,46.8,0,0,0-.78-12.59c-.45-2.41-1.21-7.91,2-8.61a.58.58,0,0,0,.06.83c1.41,2.51-.14,5.38.95,7.93C626.41,497.18,626.43,497.68,626.44,498.18Z"/><path class="cls-25" d="M516.37,517.18c.61.71,1.71,1.28,1.57,2.35l-7.61,9c-1.8,1.07-2.94-1.17-4.14-2.15a2.92,2.92,0,0,1-1.64-3.5C506.73,519,512.57,510.21,516.37,517.18Z"/><path class="cls-26" d="M619.92,6.68c-5.48,9.41-7.77,10.63,4.68,12.14l.18.6c-3.25,4.74-7.93-2.45-11.63,3.51-.65.21-1.23.2-1.61-.47l.05.05c-2-1.16.5-3.21-.9-4.48a3.55,3.55,0,0,1,.07-3.79C611.56,9.18,613.34,3.89,619.92,6.68Z"/><path class="cls-27" d="M575.09,413.7c1.08,0,2.54-.19,2,1.58-.55,2.54-1.16,11.44-5.33,6.77C570.27,419.37,574.13,416.24,575.09,413.7Z"/><path class="cls-23" d="M914.15,272.62c-10.49-4.61-13.69-5.77-25.38-3.77C895,264.81,908.1,266.75,914.15,272.62Z"/><path class="cls-28" d="M614.21,31c1.43,5.31.1,8.91-3.47,9.39-1.81-3.26,1.29-5.4,1.69-8.28C612.87,31.49,613.11,30.55,614.21,31Z"/><path class="cls-23" d="M886,470c7.11,2.52,14.34,2.19,21.62,1C902.64,474.09,890.17,473.54,886,470Z"/><path class="cls-23" d="M948.94,356.26a59.38,59.38,0,0,1-1.88-16C948.94,345.46,949,350.85,948.94,356.26Z"/><path class="cls-23" d="M939.53,430.51a29.76,29.76,0,0,1,3.77-12.22C942.8,422.6,942,426.81,939.53,430.51Z"/><path class="cls-29" d="M602.72,16.15c-2-.19-3.73-.5-1.36-2.81a.25.25,0,0,0,.42,0l5,1.65C606.08,17.65,604.22,16.25,602.72,16.15Z"/><path class="cls-23" d="M946,330a.62.62,0,0,1,.24.62c1.23,2.83.77,5.83.85,8.77C946.44,336.24,943.86,333.37,946,330Z"/><path class="cls-23" d="M334.43,249.15l4.4-1c-2.28,2.18-4.39,4.57-7.46,5.71l-.34-.53A5.4,5.4,0,0,1,334.43,249.15Z"/><path class="cls-23" d="M187.47,350.69c1,3.23,2.61,6.54-.94,9.32C188.17,357,187.21,353.8,187.47,350.69Z"/><path class="cls-23" d="M505.2,522.76c-.35,1.39.51,2.45,1,3.62-2.93-.2-3.2-3.09-4.75-4.68C503,520.55,504.31,521.3,505.2,522.76Z"/><path class="cls-23" d="M949.88,365.66c-1.91-3-.53-6.28-.94-9.4C950.85,359.23,949.46,362.54,949.88,365.66Z"/><path class="cls-23" d="M558.8,62.07c2.67-1.81,5.75-.2,8.54-1h0C569.3,63,559.88,61.73,558.8,62.07Z"/><path class="cls-23" d="M874.67,462.46c2.38.25,3.53,2,4.7,3.76C877,466,875.84,464.21,874.67,462.46Z"/><path class="cls-23" d="M854,314.9a9.57,9.57,0,0,1-1.88,6.58A9.52,9.52,0,0,1,854,314.9Z"/><path class="cls-23" d="M855.87,309.26c.08,2.12-.07,4.16-1.88,5.65C853.91,312.79,854.05,310.75,855.87,309.26Z"/><path class="cls-21" d="M567.27,62.07l.06-1,6.59.07C575.42,63,568.28,61.82,567.27,62.07Z"/><path class="cls-30" d="M220.33,522.65c.6,7.33-3.7,9.3,4.3,13.62,5,3.22,9.74,6.74,15.09,9.36,1.05,6.59,8.8,7,8.35,11.08-.75,4.07,2,3.32,3.93,2.78,5.8-2.24,11.8.67,17.51-1.66,6-2,8.36-7,5.19-12.54-5.58-9.78-15.36-14.67-26.47-14.83-8.78-.06-10.38,1-13.5,9-5.15-1.51-8.6-7.79-5.74-12.54,10.41-19.79,19.88-40.28,30.78-59.73,34.91,62.27,70,124.46,104.47,187-1.7,1.83-4,1.65-6.15,1.63-18.3-.2-36.6.29-54.91-.12-41.15.45-82.32,0-123.48.21Q114,538.06,48.42,420.2c2.49-2.34,5.61-1.61,8.5-1.61,47.08-1.06,94.8,2,141.58-1.15,2.13-.94,2.92.42,3.22,2.1.73,4,1.64,8,2.29,12,.53,3.22-1.39,4.48-4.23,5a218,218,0,0,0-51.91,16,131.55,131.55,0,0,0-12.18,6.07c-2.19,1.27-4.41,2.42-7,2.35-2.85-.09-3.86,1.32-3.84,4,.11,6.5-.07,13.45.07,19.71.09.31.41.17.47-.32,2.17-7.24,3.36-17.87,12.89-18.1,30.49-5.53,60.9-11.46,91.43-16.76,4.18-.72,8-1.31,9.14-6.28.1-.47.75-.46,1.21-.47,2.07,2.36,7.39,4.51,4.85,8.25-10.44,15.06-16.06,32.28-21.8,49.28-1.68,0-2.39-1.34-3.08-2.48a62.43,62.43,0,0,0-31.18-24.32c-20-9.05-58.58-6.09-45.63,23.31,11.4,21,40.58,34.48,64.08,30C211,526.52,217.45,520.84,220.33,522.65Z"/><path class="cls-31" d="M199.75,417.47c-.39,2.94-2.63,2.58-4.64,2.59-48.9.22-97.79.08-146.69.14-5-8.86-9.82-17.8-15-26.52-2.29-3.83-1.07-4.31,2.64-4.31,50.53,0,101.07-.23,151.61-.15,1,2.58.53,5.26.55,7.89.05,10.17,0,10.17,9.55,11.5,2.26,1.51,2,4,2.34,6.22C200.13,415.73,200.38,416.65,199.75,417.47Z"/><path class="cls-32" d="M179.7,655.88c1.4-2.54,3.86-1.66,5.91-1.67q58.74-.08,117.47,0a6.51,6.51,0,0,1,2.87,2.93c3.7,7,7.66,13.83,11.55,20.7.74,1.3,1.82,2.63.65,4.26-39.47,1.46-79,.43-118.5,1.06-3.69,0-5.59-1.2-7.24-4.38C188.38,671.06,184,663.51,179.7,655.88Z"/><path class="cls-33" d="M318.15,682.14l-15.07-27.89,61.16-.09L378.37,679c1.08,1.91,1.76,3.51-1.6,3.48C357.23,682.33,337.69,682.25,318.15,682.14Z"/><path class="cls-34" d="M100.13,372.49c11.05.88,22.13.4,33.19.74,3.22,0,8.34,1.64,7.93,5.48-.39,2.81-3.6,1.86-5.57,1.73-12.31-.82-24.63-.38-36.95-.64-3.09-.06-6-.76-7.81-3.43C87.43,370.79,97.16,372.78,100.13,372.49Z"/><path class="cls-35" d="M302.5,693.25c11.89,1.65,22.62,6.94,29.3,18.48,3.53,6.1-.06,11.63-7.1,11-12.21-1.08-21.74-7.19-29-16.83C291.11,699.6,293.76,692.86,302.5,693.25Z"/><path class="cls-36" d="M29.58,361.58c3.1-9.05,8.55-10.64,15-4.35l1.08,4C44.38,371.34,31.73,371,29.58,361.58Z"/><path class="cls-37" d="M39,378.87c-3.84.68-13.3-8-5.3-8.44,3.25,0,9.57,3.3,8.8,7.13C42,379.15,40.52,378.7,39,378.87Z"/><path class="cls-38" d="M152.62,371.65c3.49,1.46,9.51,5.15,7.14,9.57-2.9,4-11.39-1-13.39-4.3,1-4.37,7.13,4.69,9.53,1.64,1.63-2.76-4.52-3.51-4.39-6.29A1.54,1.54,0,0,1,152.62,371.65Z"/><path class="cls-39" d="M147.12,375.92l-.75,1c-1.19-1.46-2.52-3.08-1-4.88,2.15-2.49,4.77-1.11,7.23-.39C150.78,373.08,148.53,374,147.12,375.92Z"/><path class="cls-8" d="M608.78,250.86c-.54-42.19-2.56-84.7.4-127-1.75-2.72-1.25-5.76-1-8.67.81-11.46,2.11-22.92,3.32-34.26.92-1.48,0-3.22.67-4.74.49-3.22,2.4-5.72,4.17-8.29,2.71-1.43,5.14-3.6,8.53-3.23,1.4,1.21,0,3.14,1.15,4.39,1.89-.35,3.36-1.69,4.73-2.94,3.36-3,6.86-.36,9.08,2.43,4,3.76,5,3.74,8.43-.65,1.42-1.84,2.43-4.15,5.42-3.43a17.67,17.67,0,0,1,9.58,3.43c1.34,28.82,4.61,57.57,4.75,86.4-16-10.85-39.41-2.57-55.67,3.72-2.5.93-3.71,2.28-3.7,5.15-.41,29.26.41,58.47.85,87.7A1.76,1.76,0,0,1,608.78,250.86Z"/><path class="cls-40" d="M649.86,236c-3.76-16.93-7.27-33.91-11.19-50.81-3.18-5.05,2.45-10.49,6.87-12.39,4.06-2,8-4.28,12-6.44,1.76-.09,1.49.81.92,1.87-3.4,1.92-4.88,5.62-7.56,8.21a2.85,2.85,0,0,0-.76,2.12c1.86,13.12,1.52,26.38,2.35,39.56.61,9.61,1.84,19.25,1.17,29.38C651.25,243.75,652.46,239.25,649.86,236Z"/><path class="cls-41" d="M626.42,320.37c3.46,2.16,1.17,6.45-2.55,5.71l-18.2,0c-.49-3.56,1.2-6.85,1.24-10.34a3.45,3.45,0,0,1,4.56-.16A45,45,0,0,0,626.42,320.37Z"/><path class="cls-42" d="M680.19,316.54c3.24.42,2.82,2.85,2.6,5-.26,2.49-2.33,2.07-4,2.1-9.58.16-17.31-5.38-26.45-8,3-4.74,13.89-5.67,15.62.76C669.51,320.72,675.41,320.43,680.19,316.54Z"/><path class="cls-43" d="M635.76,204.92c-.23,3.12,1.44,5.53,2.78,8.15a15.21,15.21,0,0,1,1.64,9.17c-.54,3.59-3.31,4.09-5.93,9.84a28.72,28.72,0,0,0-1.41,3.72c-.33-1.33-.67-2.66-1-4,.09-.85.22-2.06.38-3.51C634.57,206.7,635.81,204.33,635.76,204.92Z"/><path class="cls-44" d="M611.47,315.6l-4.56.16q-.06-4.67-.14-9.33l3.07-.63a33.81,33.81,0,0,1,0,6,3.94,3.94,0,0,0,0,1A4.79,4.79,0,0,0,611.47,315.6Z"/><path class="cls-45" d="M637.78,182.27c1.21.71,1.24,1.77.89,2.95-2.13,3.11-.72,7.19-2.83,10.3C635.77,191,636,186.53,637.78,182.27Z"/><path class="cls-46" d="M658.43,168.26a2,2,0,0,0-.92-1.87,3.43,3.43,0,0,1,3.36-1.42C661,166.83,659.71,167.53,658.43,168.26Z"/><path class="cls-47" d="M371.72,751.93c-1.79,1.88-2.46-.77-3.75-.92-1.43-1.12-2,.24-2.83.94-1.25-.88-2.53,0-3.79,0h0c-1.79,2-2.43-.84-3.73-.9-.84-.67-2.1-.7-2.7-1.74l1.73-2c.89-1.2,2.54-.9,3.59-1.78l2.09-.15h0c3.45-1,6.89-1.54,10.34,0h0c1.65-2,3.23-.57,4.83.1.95.48,2,.76,2.65,1.73-.83,1.15-.58,2.86-1.9,3.77-1.22-1-2.44,0-3.66,0S371.79,750.19,371.72,751.93Z"/><path class="cls-48" d="M286.93,745.53l2.19,0c1.84-2.45,3.72,0,5.59-.07.52,1.53,1.91,1.05,3,1.3,1.46.63,1.3,1.78,1,3-.22.92.51,1.57.71,2.39-1.73,1.56-3.32.49-4.93-.27-1.23-1-2.39.06-3.59.11L289,752c-1-1.33-1.95-1-2.91,0-1.67.08-3.25,1.5-5,.29.52-.94-1.05-.21-1.54-.35-2.08-2.06-.23-5.62,2.05-6.66l2.68.13C285.11,746.82,286,746.48,286.93,745.53Z"/><path class="cls-49" d="M268.24,751.86c-1.81,2.38-3.7,0-5.54.1-.82-.68-1.91-.91-2.67-1.67,1.18-1.66,1.05-4.22,3.48-5,.39.49-.09-.2.28.31,0-.15-.17-.23-.24-.35,1.91-1.91,2.69.29,3.86,1.07.62,0,1.26.07.93-.89,1.73-2.27,3.66.67,5.45-.21l.44.42c.52,2.86-1.72,5-4,6.27l-2,0Z"/><path class="cls-48" d="M337.88,751c-1.48-.1-2.92-.39-3.7-1.77.78-1.19.38-3,2-3.76,1.09,1.08,2.2.79,3.33.07,6.38-3.35,10.94,1.43,4.19,6.29l-3,.11C340,750.86,339,750.92,337.88,751Z"/><path class="cls-50" d="M273,749.18c0-.38.05-.76.07-1.13.8-.69,1.85-1.77.71-2.83a22.74,22.74,0,0,1,7.85,0c-2.43,1.45-2.1,4.21-2.05,6.66l-1.1-.1c-1-.71-1.94,0-2.9.22C274.68,751.16,272.26,750.85,273,749.18Z"/><path class="cls-51" d="M297.42,749.89c.48-.93,1.46-1.88-.11-2.73a1.21,1.21,0,0,1,0-1.64h2.15c.87,1,1.73.89,2.57,0l2.81-.26c1,.66,1.12,2,1.19,3.13-.79,2.26-3,2.43-4.74,3.54l-1.9.22C299,751.18,297.68,751,297.42,749.89Z"/><path class="cls-52" d="M349.09,750c.78-1.07,2.45-1.21,2.81-2.7a1.26,1.26,0,0,1,1.86-.08c-1.25,1.81-.63,5.43-4.53,4.68A1.3,1.3,0,0,1,349.09,750Z"/><path class="cls-53" d="M290.89,751.94c.7-1.15,1.33-2.6,2.94-2.34,1.19.19.77,1.38.65,2.24C293.31,752.8,292.14,753.61,290.89,751.94Z"/><path class="cls-54" d="M337.88,751c.67-1,1.51-2.23,2.86-1.66,1.59.66.32,1.72,0,2.6C339.36,752.83,338.46,752.4,337.88,751Z"/><path class="cls-55" d="M374.59,751c1.21-1.48,2.43-3.55,3.66,0C377,751.65,375.82,752.65,374.59,751Z"/><path class="cls-56" d="M349.09,750c.05.63.1,1.27.14,1.9-1.4-.73-3.3-1.2-3.86-2.88l1-1.82a2,2,0,0,1,2.77,0C349,748.13,347.67,749,349.09,750Z"/><path class="cls-57" d="M297.33,745.52c0,.55,0,1.1,0,1.64-.93.44-1.83,1.45-2.91.64s0-1.61.31-2.37Z"/><path class="cls-58" d="M380.15,747.2c-1.29,0-2.72.31-2.65-1.73.91-.47,1.85-1.29,2.89-.56S380.57,746.46,380.15,747.2Z"/><path class="cls-59" d="M286.93,745.53c0,1.67-.88,2.84-2.5,2.4s-.47-1.66-.11-2.54Z"/><path class="cls-60" d="M354.92,749.26c1.39-.18,2.64-.14,2.7,1.74-.94.5-1.88,1.44-3,.64S354.48,750,354.92,749.26Z"/><path class="cls-61" d="M345.37,749a1.9,1.9,0,0,1,1.89,2c-1.09.75-2.2,1.39-3.59.86A2.81,2.81,0,0,1,345.37,749Z"/><path class="cls-62" d="M353.76,747.21l-1.86.08C350.19,743.48,357.4,745.09,353.76,747.21Z"/><path class="cls-63" d="M268.34,745.43c1.4.3,3.4,1.23,1.15,2.16-1.23.52-1.56-.55-2.08-1.27Z"/><path class="cls-64" d="M302.05,745.47c.4,2.91-3.59,3.15-2.57,0Z"/><path class="cls-65" d="M273,749.18c.28.59.56,1.17.85,1.76a3.2,3.2,0,0,1-3.61,1C270.72,750.55,271.36,749.36,273,749.18Z"/><path class="cls-66" d="M286.11,752c.16-1.59,1.11-2.54,2.63-2.2,1.3.29.46,1.4.28,2.18Z"/><path class="cls-67" d="M334.18,749.24a2.28,2.28,0,0,1,2.6,1.62h.07c-1.1.69-2,2.38-3.59.88A3.25,3.25,0,0,1,334.18,749.24Z"/><path class="cls-68" d="M365.14,752c0-1.06-.21-2.31,1.22-2.62,1.23-.26,1.53.68,1.61,1.68Z"/><path class="cls-69" d="M371.72,751.93c-.68-.49-2-.89-1-1.95,1.23-1.37,2.12-.49,2.68.87Z"/><path class="cls-58" d="M275.59,752c.32-2.16,3.2-2.95,2.91-.22C277.58,752.54,276.68,753.54,275.59,752Z"/><path class="cls-70" d="M339.48,745.55c-.44,2-3.88,2.52-3.33-.07Z"/><path class="cls-71" d="M349.14,747.21l-2.77,0,.18-1.67C347.55,745.87,350.07,743.9,349.14,747.21Z"/><path class="cls-72" d="M260,750.29c1.43-.31,2.77-.47,2.67,1.67C261.13,752.48,259.66,752.85,260,750.29Z"/><path class="cls-66" d="M360.24,745.52c-.61,1.78-2.07,1.83-3.59,1.78C356.83,744.67,358.71,745.44,360.24,745.52Z"/><path class="cls-73" d="M280.77,751.86c1.61-4.12,5.55-.25.36.41Z"/><path class="cls-51" d="M304.86,745.21c2.65-2.44,4.49,2.5,1.19,3.13C305.33,747.44,305.72,746.06,304.86,745.21Z"/><path class="cls-74" d="M301.31,751.88c.6-1.82,2-2,3.61-1.75C304.24,751.79,303.13,752.57,301.31,751.88Z"/><path class="cls-48" d="M333.26,751.74l3.59-.87C336,752.53,335.05,753.86,333.26,751.74Z"/><path class="cls-9" d="M580.05,343.52c-10.64,11-27.86,13.33-41.68,5.74,1.58-4.56,3-9.2,6.67-12.65,2.08-2,2.31-4.72,3.29-7.15a2.25,2.25,0,0,0-.92-2.87c-6.89-4.88-13.22-11.14-22.85-9.33-4.71-2.24-2.08-6.39-2.46-9.73-.09-4.09,5.48,0,5-6.18.52-4.82,3.54-8.86,8.24-9.49,11.31-.81,17.47-14.37,29.21-7.93.4,6.86,7.13,4.35,4.54,9.42-2.3,2.14-5.21,4-2.55,7.87.74,3.84-6.08,5-3.91,11.94,2.63,12.93,13.29,2.41,16.47,8.88C580.32,329.14,582.94,336.23,580.05,343.52Z"/><path class="cls-17" d="M543.82,362.53q0,3.08-.07,6.17c-1.59,2.21-4,2.3-6.34,2.3q-60.87.11-121.72,0c-2.37,0-4.75-.13-6.37-2.28-.28-8.5-1.34-18.7,10-18.72,17.63-.38,35.3-.06,52.95-.27,4.17,9,11.14,12.58,21.06,12.27,15-.46,30-.13,45-.1C540.16,361.91,542.08,361.52,543.82,362.53Z"/><path class="cls-8" d="M580.05,343.52c.7-6.92-1.41-13.61-1.75-20.45-.16-3.12-2.65-2.21-4.22-1.95-2.81.46-5.52,1-8.25-.26s-5.4-2.75-4-6.63c.15-.42.28-1.08.06-1.36-3.88-5.18,1-7.22,3.57-10.09,3.65-3.91,8.28-3.56,13-3.18-2.68-.5-5.27-2-8.1-.05-1.84,1.28-3.78,1.44-5.3-.68-2-2.76,1.17-2.85,2.12-4.07,6.44-7.61-7.64-2.45-2.67-10.12.35-.5.71-1,1.44-.85C591.78,290.22,600.16,326.08,580.05,343.52Z"/><path class="cls-17" d="M524.94,316.72c7-2.44,15.55,1.73,20,7.35,2,1.63,7.33.72,4.66,5.89-1.38,2.66-1,6-4.09,8.1-3.82,2.58-3.49,8.22-7.1,11.21-3.53-1.39-6.2-3.86-8.67-6.62-.1-5.14-3.33-8.55-6.62-11.93-2.48-4.23-.5-8.82-1-13.22C521.91,315.82,523.75,316.23,524.94,316.72Z"/><path class="cls-75" d="M552.33,284.66c-4.69,3.68-9.15,7.47-15.6,8.16-6,.63-8.47,4.47-7.92,10.59.2,2.26-.54,3.24-2.82,2.93-1.12-.79-3.08.21-3.67-1.71,5.46-13.53,15.51-20.89,30-22.29A2,2,0,0,1,552.33,284.66Z"/><path class="cls-76" d="M522.32,304.63l3.67,1.71c-1,.52-3.21-.54-3,1,.34,3.17-2.23,7.09,2,9.43l-2.13.58c2.92,4.25-1.95,9.28,1.35,13.49-.11.86-.26,1.68-1.15,2.1-3-6.18-5.14-12.39-2.28-19.34C521.87,310.76,520.32,307.35,522.32,304.63Z"/><path class="cls-77" d="M523,332.89a2.37,2.37,0,0,1,1.15-2.1c3.89,3,8.11,5.85,5.55,11.86A21.11,21.11,0,0,1,523,332.89Z"/><path class="cls-78" d="M552.33,284.66c0-.77,0-1.55,0-2.32,4.67-.92,9.26-1.09,13.55,1.49l-1.44.85C560.39,282.58,556.37,281.38,552.33,284.66Z"/><path class="cls-8" d="M798.74,497c3.49,28.57,7.33,57.11,2.16,85.93-1.54,8.6-3,17.25-3.45,26-2.22,9.93-3,20.07-4.66,30.09-.35,2.11-.08,4.44-1.88,6.12-2.57,1.67-15.43,2.58-14.42-2.17,2.46-24.18,6.53-48.24,7.56-72.55.5-7.77-2.24-15.68-4.28-23.37-1.88-1.55-2-3.84-2.38-5.95-1.72-6.88-1.78-14.52-4.62-21-1.94-2.3-4.54-4.92-7.31-4.28-2,.48-.24,3.87-.3,5.94-.31,16.25,1.43,33.19-4.82,48.65-3.05,7.27-3.62,15.17-5.42,22.77-.53,2.23-.48,4.73-2.6,6.32-1.15,5.07-2.45,10.11-3.4,15.21-.38,2.06-1,3.45-3.17,3.85-4,2.44-8.29,1.28-12.51,1-1.43-.49-2.68-1.15-2.49-3,3.21-21.77,7.38-43.47,9.28-65.36,1-23.49-4.25-47.37-4.18-71,1.74-.95,3,.27,4.22,1.1,12.8,8.53,26.72,13.92,42.14,15.25C787.78,497.66,793.52,494.17,798.74,497Z"/><path class="cls-79" d="M745.81,624.93a119.55,119.55,0,0,1,22.38-.69c10.76,10.5-28.65,14.78-34.5,14.7-6.07.26-3.92-10.55-1.85-13.82h0C735.25,622.74,742,623,745.81,624.93Z"/><path class="cls-80" d="M791.72,649.38c4.55.08,24.61-3.84,24.54,2.62-4.17,10-26.57,10-36.1,11.61-6.95.8-4.75-9.57-3.32-13.56C781.73,648.39,786.71,648.6,791.72,649.38Z"/><path class="cls-81" d="M745.81,624.93a54.47,54.47,0,0,1-12.95.24c-1.31-2.21-2.09-4.42,0-6.64a67.09,67.09,0,0,1,12.91,0Z"/><path class="cls-82" d="M777.27,650.07c2-1.14,1.72-3.05,1.64-4.9a54.19,54.19,0,0,1,12,0c.26,1.42.53,2.83.8,4.25C787,650.9,782.1,650.1,777.27,650.07Z"/><path class="cls-8" d="M469.54,74.32c2.88.28,7.16-1.9,7.5,2.91.25,4.13-3.68,3.74-6.19,4.17-24,3.37-40.61-26.47-25-45.13,8.58-10.39,22.92-13.65,34.31-7.8,29.37,15.05,10.58,57.49-3.31,41-1.67-2.3-2.95-1.34-4.72-.77-6.81,2.2-13.88-.84-17.5-7.41s-2-15.13,3.42-19.77c9.22-8.44,24.71-1.17,24.62,11.12.13,3.44.07,6.89.12,10.34,0,.76-.12,1.68.72,2.07,1.14.52,1.71-.46,2.21-1.19,9.59-14.47-5.05-34.48-21.76-30.82-25.43,5.5-20.94,42.62,5.62,41.29Z"/><path class="cls-2" d="M203.83,343c.9-9.59.69-19.3,3.11-28.72.12-.45-.5-1.08-.77-1.63,5.6-6.82,3.91-20.16,14.87-21.23,3.15-.11,6.62-3.9,9.55-1.21,5.57,4.1,7.93,16.35,4.37,22.49-.71.54-1.45,1.05-1.49,2.06a82.71,82.71,0,0,0-7,38.25c0,9.17,2.28,17.85,5.56,26.34.94,2.45,2.37,4.76,2.32,7.52-2.81,4.68-7.62,5.92-12.43,7.14-5-4.37-6.5-10.83-9.57-16.35A62.28,62.28,0,0,1,203.83,343Z"/><path class="cls-83" d="M259,243.61c2.45.64,3.39-4.27,5.69-2,1.28,1.26,1.17,4.09,1.39,6.24.24,2.38,2.29,4.49.77,7.16-1.93,3.39-1.82,3.45-6.66,4.76.59,2.56,5.65,1.74,4.13,6.11-1.26,3.86-4.67,2.65-6.69,2.44-6.38-.68-5.82,3.24-5.65,7.22-.68,6.59-9.34,6.06-11.68.72,2.38-6.88,1.33-14.19,2.18-21.25.65-5.43,5.69-6.61,6.68-11,.23-1,2,.1,3,.15C254.44,244.29,256.79,245,259,243.61Z"/><path class="cls-8" d="M235,312.69c1.1-8.2.49-18.93-7.8-23.38,3.75-1.49,6.51-4.24,9.1-7.21,1.87,2,3.84,3.71,6.89,2.82,2.17.2,4.9,1.47,5.06,3.87-.93,6.86.25,14.06,5.7,18.84,1.22,1.61,3.93,2.18,3.5,4.95A193.27,193.27,0,0,1,235,312.69Z"/><path class="cls-84" d="M243,285.8c-4.17,1.48-5.81.59-6.78-3.7q2-2.93,4-5.84c4.27,3.06,8.57,5,11.68-.72,3.75,3.13,5.67,6.51,2.33,9.81a2.26,2.26,0,0,1-1.8-.28C249.06,282,246,283.35,243,285.8Z"/><path class="cls-85" d="M421.64,168.73c-6.26,18.23-34.4,18.17-41.13-.07,1.45-2.18,3.77-1.95,5.9-2q14.7-.13,29.4,0C417.91,166.73,420.28,166.41,421.64,168.73Z"/><path class="cls-86" d="M421.64,168.73l-41.13-.08c-3-7.05-3.8-9.39,4.93-9h32.68c6.3,0,6.72.55,4.85,6.64A13,13,0,0,1,421.64,168.73Z"/><path class="cls-87" d="M416.41,134.84c6.22-.11,11.94,5.17,11.81,10.9.51,3.57-3.83,4.53-4.34.78-1.06-9.19-13.45-9.34-14.49-.05-.43,3.95-5.25,2.76-4.66-.93C404.91,140,410.44,135,416.41,134.84Z"/><path class="cls-88" d="M385.67,134.84c6.16-.09,11.95,5.21,11.89,10.87.45,3.45-4,4.53-4.43.81-1.06-9.1-13.47-9.38-14.56-.15-.45,4.38-5.52,2.52-4.51-1.29A12,12,0,0,1,385.67,134.84Z"/><path class="cls-2" d="M301.85,153.45c-.89,36.59-53.6,35.75-54.48.21C247.65,117.66,301.65,116.81,301.85,153.45Z"/><path class="cls-2" d="M570.14,166.24c16.1-1,27.53,18.6,18.51,32-4.51,7.32-9.23,14.52-14,21.7-2.37,3.58-6.06,3.91-8.46.38-5.44-8-11.49-15.73-15.66-24.5C544,182.09,554.7,166.27,570.14,166.24Z"/><path class="cls-8" d="M579.39,450.75c5.38-5.51,14,0,20.64-2.37,1.71-.45,8,.16,6.62,2.86-.44.5-1.1.28-1.61.53.79-.32.74,1,1.6.77,4.54-.93,11.25,2.92,12.63,7.12.72,4.08,4.94,11.15-.14,13.72,3.4-.72,4,.58,3,5.77-.71.56-1,1.46-1.84,2.3,1.05-.67,1-1.91,2-2.25,2.34,2.44.67,6,2.45,8.61l0-.09c1.78,16.93.2,33.94,1.36,50.91.65,6.45-1.74,13.53.26,19.93a5,5,0,0,1-3.49,1.16c-14.38.13-28.75.17-43.14-.12,13.76.29,27.24,3.16,40.91,4.37,4.29.38,4.15-2.86,5.84-4.7h.74c1.07,32.36,1.89,64.72,3,97.07.17,4.25,2.06,8.14,3.69,12,5.94,23.94,6.55,48.76,5.71,73.28-5.83,6.34-15.29,1-15.78-6.69,2.82-2.19.58-4.37,0-6.55-1.63-1.29-1.73-3.25-2.14-5-4.86-21.31-9.34-42.7-14.38-64-.53-2.25-1.4-4.54,0-6.81,3.49-.36,1.59,2.77,2.53,3.63.17,1,.85-.05.33.3-1.67-7.58-1.59-16.25-1.74-24.18,0-12.35-.87-24.66-1.25-37-.22-6.88,1.68-12.16,6.68-15.28-7,3.78-16,7.14-16.92,18.05-2.65,8-3.46,16.22-3.74,24.55-.53,8-2.08,15.78-3.15,23.67-.29,2.18-.72,4.38-.19,6.52,4.26,17.21,2.7,34.42.08,51.63-.57,3.71-.68,7.47-1.33,11.16-.27,1.53-.27,3.15-1.67,4.23l-3.72,24.52c-6.85,2-14.24-3.83-20.67-5.78,1.78-1.82,6.66.77,6.16-2.71-1.81-61.44-4.71-122.76-3.74-184.2,1.85-.28,1.85-.28,3.18,1.95.24-1.76-1.41-2.18-2.18-3.2.4-6.64-.86-13.22,1.17-20,1-3.22-.08-7.36,1.95-10.77l0,.07c1.6-1.91,3.49-3.59,4.77-5.76,1.05-2.54,3.36-4.6,3.74-7.58a1.57,1.57,0,0,1,.66-1.72c6.56-10.12,7.15-27.69,3.8-39.11a16.85,16.85,0,0,0-7.43-9.73,1.89,1.89,0,0,1-.49-3.3C575.73,451.64,578.07,452.73,579.39,450.75Z"/><path class="cls-8" d="M569.05,519.67c-.09,3.73-3.11,7.6.72,11.16.66.62.13,1.79-.71,2.44-1.47,1.14-1.47-1.2-2.74-1.09v18.63c-1.5,1.4-.91,3.23-.91,4.88-.21,38-.33,76,.92,114-1.67,4.65,6.26,3.52,3.51,5.4-4,2.36-1.28,4.51-1.56,6.61a62.26,62.26,0,0,0-.08,8c.19,5.26-.39,10.68.13,15.89,1.62,9.17.46,18.4.77,27.6,0,1.58.78,3.54-1.3,4.59-2.2-62.92-4.89-125.84-3.11-188.8.17-8.58.85-17.16,1.29-25.74A5.44,5.44,0,0,1,569.05,519.67Z"/><path class="cls-89" d="M562.51,738.61a17.46,17.46,0,0,1,10.44,3c3.07,2,6.92,1.49,10.23,2.79.71,3.09-.57,4.24-3.67,4.21-10.59-.09-21.18,0-31.78-.06-1,0-2.36.54-2.87-.8s.74-1.94,1.52-2.6A26.28,26.28,0,0,1,562.51,738.61Z"/><path class="cls-90" d="M623.84,735c.81.66,1.89,1.16,2.38,2,4.15,7.11,5.69,7.68,13.4,4.69,2.19,12.62-24.63-2.2-30.12-2.88C612.07,733.44,619.11,734.37,623.84,735Z"/><path class="cls-8" d="M623.65,734.89l-8.4,0A10.74,10.74,0,0,1,623.65,734.89Z"/><path class="cls-91" d="M225,344a18,18,0,0,1,1-8.17c5.14-2.25,6,9.82,14.85,2.56,21.48-14.95,44.86,18.22,22.89,33.91-9,6.27-18.29,12.07-27.45,18.08-2.17.06-2.42-1.44-2.53-3.07-3.55-8.7-7.11-17.39-8.3-26.8C224.23,354.92,226.65,349.45,225,344Z"/><path class="cls-4" d="M257.41,312.58c-4.56-4.53-8.83-9.73-9.3-16.43-.14-1.82-.4-3.74,2.51-2.6,2.69,2.52,4.68,5.82,8.34,7.31,8.05,3.78-3.09-17.11-.3-19.67A41.16,41.16,0,0,1,274,300.63l-3.81,2a3.31,3.31,0,0,0-2.92,1.66,18,18,0,0,0,7.56,1.41c5.05,1.93,10.52,2.79,15,6.3a14.93,14.93,0,0,1,2.17,21.7c-1.72,2-3.11-.07-4.65-.08-2-1.78-1.91-4.52-3.1-6.69C278.6,316.71,268.11,313.52,257.41,312.58Z"/><path class="cls-92" d="M228.79,408.74a19.53,19.53,0,0,1-.9-7.28c1.79-3.35,4.39-5.31,8.38-4.89,3.3,3.76,8.06,3.74,12.42,4.78,2,.27,2.83,1.35.92,2.79-1,1.07-3.72.29-3.27,2.45.59,2.42,3.83.55,5.18,2.26A49.73,49.73,0,0,1,238,414.77c-3.82,1.13-5.94-2-8.87-3.15C227.91,410.77,228.15,409.77,228.79,408.74Z"/><path class="cls-93" d="M236.27,396.57l-8.37,4.89c-5.62.41-4.85-4.29-6-7.46l11.88-6.71c.84,1,1.68,2,2.53,3.07C236.63,392.43,239,394.52,236.27,396.57Z"/><path class="cls-94" d="M230.67,337.55,226,335.81c.88-7.59,2.93-14.76,7.45-21.06-1.06,6-2,11.94-3.25,17.84A7.68,7.68,0,0,0,230.67,337.55Z"/><path class="cls-8" d="M199.75,417.47l-.74-2c4.69-2.94,10-2.06,15.09-2.45a2.41,2.41,0,0,1,2.47,1.55c6.52,10.48,15.29,19.06,23.47,28.19.07,7.74-5.93,7.46-11.06,8.4q-29.85,5.44-59.69,10.95c-10.87,2-21.72,4.08-32.62,5.9a8.93,8.93,0,0,0-5.6,2.93c-2.36-2.07-.66-6.32-4.1-7.89-1.53,1.26-1.17,2.94-1.09,4.4.32,5.85-.84,11.74.45,17.57.19,1.85-.25,3.32-2.83,4.25,0-9.23,0-18.05,0-26.88,0-2.44,1.5-2.84,3.4-2.68,3.11.26,5.6-1,8.31-2.41a205.13,205.13,0,0,1,64.68-22c2.51-.39,3.63-.89,2.84-3.81C201.48,426.85,200.72,422.13,199.75,417.47Z"/><path class="cls-95" d="M154.48,512.32c-14.12-9.91-24.3-34.86-2.75-42.47,12.9-4.49,25.43-2.51,37.67,2.76,2.74,2.28,2.52,3.51-1,5.75-2.53-.07-3.69-2.34-6-3.37a74.53,74.53,0,0,1,15.12,17.88c2.25,3.58,3.85,3.74,6.76,1.13.62-1.49,1.64-2.08,3.21-1.45,2.14.46,3.5,4.76,5.55,2.47,1.7-2-5.24-6.09-5.85-8.89-.33-1.65-.35-3,2-2.08,6,4.21,10,10.17,13.93,16.22.38,2.22-.31,4.3-.81,6.4-1,.48-1.75-.11-2.44-.76-1.62-1.62-1.65-5.89-4.62-4.74-2.59,1,0,4,.31,6.09.56,3.35.18,6.73.5,10.07,1.19.19,1.61-.94,2.48-1.2,4-1.39,2,4.73.84,6.4-13.27,10.24-31.1,7.41-45.29.85,1.1-2.16,3.15-2.72,5.1-3.42,2.68-.3,4.22,2.62,6.47,3.48.13-.07,0-.68-.18-.67a1.68,1.68,0,0,1,1.85-2.56,18.3,18.3,0,0,1,4.26,2.55c.5-2.13-1.33-3.23-2.08-4.8-3.46-4.92-5.17-11.13-9.06-15.63-1.77-1.22-4.12-1.79-5.69-.61-1.89,1.42.51,2.89,1,4.34a35.28,35.28,0,0,0,6.71,8.57c1.39,1.39,1,4.16-1.36,3.81-8.57-3.71-13.06-23-19.77-16-2.66,5.15-8.06-5.05-11.12.54C150.51,505.75,160.56,511.51,154.48,512.32Z"/><path class="cls-96" d="M227.84,530.93l6.43,8.21c3,1.51,5.3,3.46,4.95,7.24-7.49-3.17-13.91-8.12-20.42-12.83-4-2.93.77-4.81,1.58-7.17C223.37,527.07,225.13,529.77,227.84,530.93Z"/><path class="cls-97" d="M216.57,414.55c-2-1-5-2.37-4-5.09.62-1.69,2.43-1,3.72-1a105.55,105.55,0,0,1,12.46.27c.1,1,.19,1.92.29,2.88C225.12,413.5,220.49,412.48,216.57,414.55Z"/><path class="cls-98" d="M219.35,522.53c0-1.61,2.53-6.91-.87-5.63-1-4,.13-7.66,1.94-11.19l1.86,1a81.09,81.09,0,0,1-1.95,16Z"/><path class="cls-99" d="M874.65,344c-1.34-1.77-.64-3.58,0-5.3,3.4-9.06,7.15-17.88,16.46-22.65a10.45,10.45,0,0,1,10.84.62c10.44,2.91,14.65,11.31,18.15,20.43a88.64,88.64,0,0,1,4.25,16.12c.37,2,1.11,5-2.79,5a3.26,3.26,0,0,1-3.52.51c-14-4.41-28.27-7.94-42.11-12.88A2.67,2.67,0,0,1,874.65,344Z"/><path class="cls-2" d="M798.74,497c-23.43,3.7-43.92-3.63-62.89-16.71.13-7.78.94-15.56-.14-23.33.44-.39,1.13.51,1.11.12.52-23.55,5.15-46.78,7.81-70.14,2.06-13.74,3.88-22.83,20.16-21.24,1.73,1.15,3.86-.19,5.61.93,7.5-.55,12.9,4.09,18.77,7.56,21.63,11.42,42.87,23.95,64.41,35.65,2.63,1.55,4.38.71,5.93-1.55,5.21-7.62,11.12-14.74,16.39-22.32,2-2.39,3.16-5.62,6.42-6.87,4.95,1.39,5.41,6,7,9.77-1.26,6.38-6.57,10.7-9.2,16.47-3.09,3.47-3.5,8.65-7.38,11.63-4.26,5.41-4.52,20.35-14.64,15.82-14.7-5-29.52-10.15-44.14-15.54-1.89-.69-2.93-.43-3.22,1.78-.87,6.65-1.84,13.29-2.77,19.93Q803.34,467.94,798.74,497Z"/><path class="cls-99" d="M879.25,404.89c2.42-5.73,6.76-10.32,9.5-15.87a1.62,1.62,0,0,1,1.39-.12c5.31,2.05,10.75,3.67,16.21,5.31,1.9.57,4.43.54,5,3.26,1.13,1.53,3,1.86,4.55,2,5.42.65,4.59,3.45,2.76,6.92-2.61,5-4.88,10.05-9,14.1-3.4,3.31-7,4.79-11.62,3.47C888.83,422.93,872.09,416.67,879.25,404.89Z"/><path class="cls-100" d="M879.25,404.89c-3.36,7.09,2.58,10.67,5.76,15.29l-12.27-3.24C874.43,412.67,876.26,408.46,879.25,404.89Z"/><path class="cls-101" d="M203.83,343c1.64,10.28,3.79,20.45,6.33,30.55C198.74,366.85,196,353.43,203.83,343Z"/><path class="cls-102" d="M227.91,408.87l-9.82,0c-5.21,0-5.21,0-3.36,4.7-5.13,1.48-10.49,1.15-15.72,1.85l-1.26-6.85C207.8,408.22,217.86,407.56,227.91,408.87Z"/><path class="cls-103" d="M340.38,354.39c-6-.08-11.41-4.76-11.93-10.48-.16-1.72-.3-3.68,1.89-4.24s3,1.24,3.42,2.94c1.27,8,12,8.26,13.37.23.77-5.27,6.7-3.4,5.51,1.34A12.56,12.56,0,0,1,340.38,354.39Z"/><path class="cls-104" d="M315.33,315.85l2.44-5.37c.54-1.2.54-2.92,2.29-3.06,1.92-.15,1.78,1.75,2.42,2.84.38.65.73,1.32,1.1,2,.76,4.32,4.76,9.68.17,13.42-2.63,2.08-5.24,1.5-7.81-.15C313.46,322.43,314.43,319.14,315.33,315.85Z"/><path class="cls-105" d="M331.05,326.92c10,.15,7.67,12.6,4.17,6.85-3.29-5.34-5-5.29-8.57.27C323.05,339.41,321.14,326.8,331.05,326.92Z"/><path class="cls-106" d="M349.88,326.92c9.49,0,8.47,12.17,4.36,7.18-4-5.73-4.85-5.73-8.74-.05-1,2.3-3.1.74-2.86-1.24C342.69,329.93,346.32,327,349.88,326.92Z"/><path class="cls-4" d="M563.38,472.88c-7.16-2.24-12.87-7.19-19.49-10.45-2.87-1.05-5.71-2.12-6-5.82,3.88-4.31,9.17-6.73,13.7-10.16a3.19,3.19,0,0,1,3.52,0l5.46,1.15c4.81,2.56,10.16,3.13,15.39,4.14,1.16-.22.68.33.25.62-.71.49-1.73,0-2.43.66l0,0a1.25,1.25,0,0,0,0,2l0,0c.61.42,1.43.71,1.22,1.72-4.1-1.6-6.48-1.29-6.06,4.2.21,2.79-1.3,5.67-1.6,8.55C567.07,472.1,565.7,472.89,563.38,472.88Z"/><path class="cls-107" d="M535.27,505.69c1.85,3.3,2.13,7.72,6.55,9.19-.3.32-.79,1-.88.93-3.57-2-6.94.84-10.53.36-2.81-.09-12.5-1.11-14,1a2.56,2.56,0,0,1-1.88-1.46c.94-2.32,3.06-1.82,4.82-1.9,3.75-.16,7.51-.06,11.26-.05,2.53,0,3.61-.84,2.23-3.38-5.75-10.56-11.69-21-17.26-31.69a4.47,4.47,0,0,0-4.46-2.67c-8.45,0-16.89.05-25.34,0-3.22,0-3.82,1.05-2.35,3.92,4.06,7.91,8.92,15.43,12.09,23.8-.12,2.42-1.12,3.1-3.21,1.64-5-4-6.63-10.38-9.59-15.73-2.28-5.09-13.88-17.68-3.34-19.75a245.87,245.87,0,0,1,34.44,0c4.71.68,6,6.14,8.12,9.68,2.82,5.31,5.82,10.52,8.63,15.83C531.93,498.94,535.15,501.6,535.27,505.69Z"/><path class="cls-8" d="M575,456.71,573.78,455c8.22,3.2,9.53,10.69,10.23,17.92.54,5.68,1,11.57-.51,17.26-.56,2.15,1.35,3,2,4.82-6.47-.31-1.49,8-7.36,9.69C583.19,490.61,588.21,467.7,575,456.71Z"/><path class="cls-108" d="M517.94,519.53c-.11-.37-.21-.74-.31-1.1h15C527.31,522,522.59,520.39,517.94,519.53Z"/><path class="cls-8" d="M577.52,506.4c-.06,2.86-.56,5.49-3.56,6.81C574.33,510.52,576.32,508.66,577.52,506.4Z"/><path class="cls-8" d="M573.78,514c-.32,3-2.54,4.38-4.77,5.76C570.15,517.45,571.28,515.14,573.78,514Z"/><path class="cls-109" d="M768.55,352.25l-2-1.64c-1.13-2.33-3.35-3.67-5.16-5.32-5.92-5.38-7.34-12.49-8-19.89-.31-3.27,1.72-5.41,4.51-6.42,7.66-2.78,15.1-5.76,21-11.8,2.08-2.14,5.31-1.59,8.09-1.33,10.4.95,19.22,7.3,29.56,8.65,9.55,1.77,11.38,5.54,6.91,13.91-20.51,23.15-23.86-5.45-35.09,9.5-3.83,4.16-9.94,16.18-14.87,17.64Z"/><path class="cls-110" d="M793.87,364.71q0,6.1,0,12.21c-2,.45-3.23-1.18-4.83-1.78-6.11-3.09-11.78-7.13-18.66-8.54,4.7-2.66,3.24-7,3.07-11.05,5.07-5.89,9.37-12.36,13.94-18.63s7.52-6.84,14-2.5c3.79,2.56,7.87,2.56,12.09,2.35,1.51,16.08-6,21.51-19.55,27.13A27.25,27.25,0,0,1,779,360C783,363.38,788.51,363.84,793.87,364.71Z"/><path class="cls-12" d="M874.65,344l1,1c-6.54,12-3.39,26.12-4.25,39.17-1.16,1.57-2.78,1.31-4.26.85-5.88-2.14-20-4.25-23.63-8.89,2.1,0,3.11-.9,3-3.11-.53-11.15.78-22.2,2-33.25a3.79,3.79,0,0,0-1.05-3.25C856.72,338.24,865.43,342,874.65,344Z"/><path class="cls-13" d="M843.48,376.1a208,208,0,0,0,27.42,8.39c2.22-.28,4.21.1,5.67,2-5.36,8.75-12.06,16.52-18,24.87a2.32,2.32,0,0,1-3.58.73c-3.76-2.45-8.16-3.82-11.57-6.86l5.95,1.27c-1-9.09-1.89-17.85-3.17-26.54-.46-3.17-4.73-1.83-6.32-4Z"/><path class="cls-111" d="M258.66,281.19c1.56,6,3.78,11.79,4.56,18,1.08,4.14-.68,5.35-4.25,3.1a14.65,14.65,0,0,1-8.58-8c-1.24-2-2.47-3.94-1.6-6.43,1-1.68,1.63-4,4.46-3,3.82-.44.26-5.95-.07-8.11a1.34,1.34,0,0,1,.15-.49c2-.44,3.43.6,4.6,2.08l.28.11A2.16,2.16,0,0,0,258.66,281.19Z"/><path class="cls-112" d="M331.24,253.74l-.93.23-7.71-7.16.27-1.43,3.77-3,7.79,6.77C334.09,251.18,332.16,252.11,331.24,253.74Z"/><path class="cls-8" d="M959.34,484.94l-7-2.81,2-40.35,21.7,5.86c7.46,1.24,8.76,5.74,8.11,12.74C980.64,496.53,995.15,494.74,959.34,484.94Z"/><path class="cls-9" d="M876.57,386.47c-1.94-.51-4-.73-5.67-2-2-12.29-1.11-24.5,1.12-36.65.34-1.87,1.46-3.1,3.6-2.87,15.33,4.36,30.54,9.19,46,13.23a3.56,3.56,0,0,0,2.92,1.76c5.6,2.61,1.34,35.8-2.86,39.73-10-1.75-19.56-5.35-29.25-8.43-1.2-.38-2.46-.49-3-1.82.68-2.51,3-3.39,4.82-4.7a36,36,0,0,0,6.35-6c3.2-3.6,3.33-19.53-3.18-18.87-5.09,1.27-4,8.25-4.79,12.24-2.27,4-6.85,4.84-10.16,7.42C879.93,381.43,879.22,384.76,876.57,386.47Z"/><path class="cls-8" d="M965.76,371.56a3,3,0,0,0,2.82.81c3.89,2.07,8.25,2.73,12.39,4.05,1.86.58,3.42,1.11,3.37,3.68-.22,11.53-.4,23.06-.32,34.58,0,3.84-1.33,4.07-4.46,3-9.18-2.55-18.29-5.34-27.23-8.69-2.22-4.91-1.28-10.13-1-15.16.32-5.88.77-11.76.85-17.66,0-2.62.18-5.33,2.32-7.34Z"/><path class="cls-12" d="M921.63,399.69c2.31-13.05,5.9-26.42,2.86-39.73,9.73,1.81,19,5.05,28.29,8.48-2,2-2.31,4.55-2.46,7.29a256.46,256.46,0,0,1-2.94,27.93,6,6,0,0,1-1.28,3.45A157.94,157.94,0,0,1,921.63,399.69Z"/><path class="cls-113" d="M946.1,407.11c-.93-4.53.8-8.87,1.15-13.3.58-7.24,1.84-14.44,1.63-21.73-.31-3.9,2.77-4.13,5.61-3.25L952.33,409A16.22,16.22,0,0,1,946.1,407.11Z"/><path class="cls-114" d="M652.86,33.87c-.63,4.53-3.69,7.88-5.75,11.72a6.86,6.86,0,0,1-9.85-5.48c0-3.93,6.92-2.19,5-9.79l.45-.55c3.81-.66,6.8,1.62,10.08,2.82A.89.89,0,0,1,652.86,33.87Z"/><path class="cls-115" d="M653.69,64.51c-2.13.23-2.86,1.91-3.87,3.48-5.35,10-10,2.24-15.18-3.1,4.21-1,8.39-1.94,11.57-5.2C649.15,60.6,650.36,64.2,653.69,64.51Z"/><path class="cls-116" d="M615.36,24.68l-2.14-1.82c.32-4,2.44-4.66,5.75-3.05,2.07,2.06,4.95,1.7,7.45,2.31a11.16,11.16,0,0,1,6.32,3.65,4.55,4.55,0,0,1,.88,4.75c-.15.53.86.12.23.09.18-4.1,8.3-5.12,8.8-.68-.11.13-.24.26-.37.39-5.21-1.89-6.4-1.16-8.74,5.52-1.84-1.9-1.76-4.3-2.23-6.53C630.61,26,629,23.89,625.1,25,621.84,25.88,618.59,25.15,615.36,24.68Z"/><path class="cls-115" d="M634.23,64.85a68.9,68.9,0,0,0-7.87,5.67c-1,.69-2.05.5-1.78-.69.4-1.78.4-3.66,1.13-5.37l2.6-2.71C629.84,63.63,632.27,63.79,634.23,64.85Z"/><path class="cls-117" d="M611.44,82.75c.25,13.78-1.42,27.44-2.25,41.15a5.55,5.55,0,0,0-3.44,2l-1.77.21c-1-4.74,1-9.07,1.82-13.57C607.5,102.59,609,92.58,611.44,82.75Z"/><path class="cls-118" d="M586,74c3.42,2.18,2.73,5.58,2.63,8.8a60,60,0,0,0-13.7,2.89c-2.36-1.77-2.06-4.34-2.06-6.83,2.79-1.61,5.28,3,8.26-1.14C583.06,76.85,583.72,74.34,586,74Z"/><path class="cls-117" d="M612.18,76.23c.11,1.62.46,3.29-.67,4.74C611.38,79.39,610.74,77.42,612.18,76.23Z"/><path class="cls-119" d="M593.27,39.68c3.36.7,6.54,2.65,7.82,6,.59,3.62,1.27,7.25-2.35,9.87-2.48,3.58-6.08,2.66-9.52,2.36A32.71,32.71,0,0,0,593.27,39.68Z"/><path class="cls-120" d="M586,74c-1.26,1.6-1.32,4.48-4.4,4.15-1.73-1.34-.83-2.91-.41-4.44.62-1.53,1.19-3.06.11-4.63-2.63-1.88-5.27-3.74-6.5-6.92h-1l.18-1c2.29-.45,4.1-.65,4.59,2.63.38,2.5,4,1.1,5.13,3.24,1.49-2.11.3-5.47,3.36-6.72C585.19,64.72,585.72,69.35,586,74Z"/><path class="cls-121" d="M524.89,486.8a15.36,15.36,0,0,1-2.92-5.37c2.91-2.77,6.54-.8,9.28-1.59a82.92,82.92,0,0,0-10.1.21,15.19,15.19,0,0,1-2.81-5.35c4-2.85,8.52-.52,11.87-1.45-3.76-.3-8.41.51-13-.42a9.62,9.62,0,0,0-5.7-1.71c-10.16.08-20.31,0-30.46.05-5.52,0-6.35,1.62-3.7,6.53,2.28,3.9,3.67,8.28,6.24,12a6.09,6.09,0,0,1,1.81,3.68c-.36.68-1.07.86-1.68,1.19.82.74,2,.09,2.86.78,1.71,3.36,4.32,6.83,5.62,10.16-26.89.42-54,0-80.94.12-1.76-1.83-2-4-2-6.48q.08-65.2.05-130.41c44.74.74,89.69.8,134.43,0-.55,23.68,1.11,47.82-.57,71.27-3.95.57-6.2-1.51-7.64-4.87.4-9.29.93-10.41-8.69-11.05-2.27-1.26-4.91-.3-7.24-1.2-1.53-2.18-4.32-4.1-1.55-7.21,5.36-2.8,17.86,3.22,17.64-5.72,0-3.51-1.33-5.21-5-5.16-11.41.17-22.84-.36-34.25.25-3.53,1-6.79-2-10.34-.68-4.79.77-4,4.42-3.81,7.62.17,6.06,12.67.9,16.7,4.34,1.48,2.21,2.3,4.48.68,7-4,2.16-8.29,1-12.45,1.16-3.12.12-5,.78-5,4.47s1.74,4.81,5.16,4.83c10.89.72,30-3.65,35.6,8.18.56,1.09.46,2-1,2.4-12-.45-24,0-31.19-.15,7.64.08,20.13-.24,32.63.18,4.81.91,6.46,2.87,5.56,6.61-1.75.92-3.65.68-5.51.68-12.49,0-25,0-34.22,0,11.23-.24,25.7.41,40.16-.27,4.72-1,6.21,2.84,8.44,5.58l6,5.47q0,17.28-.1,34.56c0,8.61,0,8.61-8.52,8.7a50.63,50.63,0,0,1-5.64-10.15c.68-.83,1.65-.53,2.64-.68-3.57-.29-5.35-2.85-6.24-6.08,1.76-1.81,4.05-1.08,6.28-1.35C529.77,487,527.26,487.7,524.89,486.8Z"/><path class="cls-122" d="M340,494.53c0-8.12,0-16.23.14-24.34.09-5.3,1.06-6.16,6.42-6.17q17.79,0,35.57,0c5.54,0,6.3.89,6.42,6.63-.35,15.36,4.2,6-9.25,20.3-7.55,8.73-8.35-2.39-13.65,3.3-2.25,2.17-4.4,4.43-6.67,6.58-5.55,5.42-6.58-5-12.66,1.35-1.76,1.64-3.65,3.83-6.3,1.14A14.49,14.49,0,0,1,340,494.53Z"/><path class="cls-123" d="M340.76,503.66c3,.91,4.15-1.64,5.66-3.2,6.55-7.07,6.8,5.23,11.88-.64,2.12-2.28,4.53-4.29,6.56-6.64,2.26-2.61,4.54-3.3,7.05-.63,1.63,1.74,2.73,1.3,4.17-.22,7.26-7.57,14.56-14.85,21.78-22.49-.32-1.47-1.75-.69-2.63-1.07a2.62,2.62,0,0,1-1.82-2.91c.35-4,8.93-1.83,11.9-2.27a3.31,3.31,0,0,1,2,1c1.25,1.23,1.34,12.24.21,13.66a2.58,2.58,0,0,1-2.43,1.1c-2.59-.28-2.1-2.7-3.18-4.83l-13.56,13.51c-2.85,5.38-7.67,8.95-12,12.92a3.94,3.94,0,0,1-5.23.13c-2.57-2.12-4.18-.81-5.9,1-3.81,3.41-7.53,10.18-13.3,5.75-2.63-2-3.82.87-5.57,1.81C343.66,508.43,340.9,507.24,340.76,503.66Z"/><path class="cls-124" d="M397,497.15q.15,16.17.29,32.33c0,2.2-.87,3.65-3.25,3.65q-29.79,0-59.57-.12c-.49,0-1-.61-1.49-.94a3.08,3.08,0,0,1,1.37-1c8.21-.83,16.45-.26,24.68-.36,10.72-.13,21.44.06,32.11-.1-3.06-5.78-15.72-7.66-15.6-14.44,2-4.64,6.24-7.31,9.59-10.76,2-.9,2.44-3.11,4-4.46C391.41,499.9,394.67,493.49,397,497.15Z"/><path class="cls-124" d="M334.2,532l-1.2.12c-1.69-1.28-1.09-3.14-1.11-4.77-.05-8.13,0-16.26,0-24.39,0-8.3,0-8.3,8.11-8.38,1.18,3,.26,6.11.78,9.14,1.88,1.91,3.76,3.83,5.65,5.74,2.16-1.11,6.87,4.6,7.28,6.78C353.81,521.34,337.77,526.91,334.2,532Z"/><path class="cls-125" d="M353,515.94l-5.76-6.43c2.63-9.42,6.75,5,12.51-2.55,1.12-1.28,2.7-2.11,3.82-3.42,2.58-3,5.25-4.92,9.08-1.69,3.47,2.37,8.95-5,11.62-7.06,1.17-1.15,1.95-2.91,4-2.92.92,4.82,1.78,10.23-2.25,14l-9.52,10.25c-1.86,2.58-4,1.27-5.71.06C361.71,509.57,357.8,520,353,515.94Z"/><path class="cls-126" d="M388.23,491.87c-3.05,4.4-7.14,7.71-11.3,11-5.1,4-6.06-6-11.69.35-1.39,1.44-3.25,2.44-4.55,3.94-3,3.5-5.8,4-9.3.47-2.17-2.15-3,.65-4.17,1.91a7.46,7.46,0,0,1-.81-.1c1.29-3.91,3.33-5.24,6.76-2,4.27,3.86,7.59-3.19,10.66-5.47,7.49-9.13,7,3.76,13.12-2.78,3.78-3.72,7.59-7.4,11.39-11.1C388.3,489.33,388.27,490.6,388.23,491.87Z"/><path class="cls-127" d="M397,497.15l-1.93-.82c-2.06,1.11-4.2.33-6.31.26a1.31,1.31,0,0,1-.33-1.75.71.71,0,0,0,.25-.41C391.47,495.37,395.54,492.31,397,497.15Z"/><path class="cls-8" d="M954.47,290.83c9.19,1.9,17.85,5.42,26.9,7.83,2.13.71,3,1.58,2.94,3.94-.23,11.1-.44,22.22-.27,33.32.57,7.9-6.22,2.49-10.53,2.31-6.79-3-14.15-4.25-21.09-6.81Q953.44,311.13,954.47,290.83Z"/><path class="cls-128" d="M747.12,374.12c1.14.27,1.32.87,1.09,2.05-5.51,27.86-7.32,56.21-11.13,84.33-1.3-.81,0-2.75-1.37-3.58C732.6,429.11,731.75,398.84,747.12,374.12Z"/><path class="cls-110" d="M770.26,366.56c-1.87-.06-3.84.59-5.48-.89C766.67,365.58,768.6,365.26,770.26,366.56Z"/><path class="cls-7" d="M575.09,409.78c-5.15.6.59-9.47.86-12,2.06-3.71,7-5,8-9.72,4.57-2.74,10.83-1.75,15.74,0,1.34.45,3.55,3.74,4.7-.54.18-.67,1.37.09,2,.51,2.24,1.56,4.39,3.59,4.71,6.18.58,4.64,2.88,8.49,4.49,12.66,4.74,10.95-2.41,21.41-11.71,27.69-8.8,6.6-14.39-1.69-17.64-9.72-2.59-4.23,4.76-2.43,3.39-8.24a2.51,2.51,0,0,0-2.26-2.08c-3-.36-2.3,2.81-3.77,4-1.26-1.43-1.16-3.23-1.39-4.89C581.34,407.63,581.14,407.51,575.09,409.78Z"/><path class="cls-129" d="M588.86,449.25l-9.12.89a8.33,8.33,0,0,1,5.45-5.74c6.21-.68,22.81-4,22.45,5.86a.88.88,0,0,1-1,.26c-2.13-.53-4.16-1.6-6.46-1.25C596.41,449.39,592.63,449.43,588.86,449.25Z"/><path class="cls-26" d="M624.6,18.82c3.74-6,.6-11.51,9.78-8.52,7.9,2,12.43,1.76,11.88,11.34a2.49,2.49,0,0,1-1.47.57c-6.74-1-13.69-.7-20.16-3.33Z"/><path class="cls-130" d="M624.63,18.88a72.54,72.54,0,0,1,20.67,2.79c2.29,3.16,6.86,1.85,9.29,4.73l.24,1.05a14.29,14.29,0,0,0-1.25,6.28,4.57,4.57,0,0,1-.72.14c-.66-4.12-3.89-6.25-7.84-6.94-6.55-1.23-12.94-3.21-19.47-4.55a6.79,6.79,0,0,1-3.77-1.69Z"/><path class="cls-131" d="M654.59,26.4c-3.13-1-9.57.08-9.29-4.73C648.77,22.46,654.56,19.79,654.59,26.4Z"/><path class="cls-132" d="M529.28,450.24a19.49,19.49,0,0,0-5.24-5.43,1.49,1.49,0,0,1-1.09-1.26l-4.57-6.33a18.9,18.9,0,0,1,9.37-9.18c3.79,1.29,6.15,4.27,8.5,7.24,5.23,5.24,12.55,7.58,18.85,11.16-4.31.43-6.6,4.29-10.17,6a67.88,67.88,0,0,0-7,4.49c-3-1-4.39-4.14-7.19-5.41A1.3,1.3,0,0,1,529.28,450.24Z"/><path class="cls-8" d="M606.64,450.52l1-.26q5.58,2.91,11.14,5.84c3.87,10.22,5,20.95,5.94,31.71-2.75-2.19-1-5.94-2.93-8.43v-5.77c-1.44.73-.66,3.26-2.86,2.73-2.42-.41-2.1-4.71.07-4.95s2-1.67,1.8-3c-.7-7.68-4.34-14.56-12.77-16.2-.84.83,1.63,4.09-1.69,2.78-1-.4-1-3.21-3.34-3.36Z"/><path class="cls-17" d="M552.05,62c-5,.2-7.55-2.87-8.38-7.18-2.58-13.38-.2-25.41,10.49-34.87,10.26-1.94,11.57,7.34,11.19,15.61-.42.83-1.2.81-2,.9-6.86.83-8.51,4.38-4.91,10.54,1.1,1.27,3,1.68,3.6,3.46C560.12,55.5,557,59.53,552.05,62Z"/><path class="cls-133" d="M557.92,48c-6.64-5.67-.57-15.13,7.43-12.41C565.93,39.76,564.41,51.29,557.92,48Z"/><path class="cls-134" d="M557.92,48c2.5,1.34,3.43-2.25,5.65-1.81a7.62,7.62,0,0,1-1.5,4.31C560.79,49.44,558.85,49.55,557.92,48Z"/><path class="cls-135" d="M257.93,278.24a9.17,9.17,0,0,1-4.6-2.08c-.12-6.89.69-7.42,10.55-6.92C263.25,273.14,261.46,276.35,257.93,278.24Z"/><path class="cls-17" d="M169.79,188.73c-13.55-8-5.34-23.5,6-18.5a5.47,5.47,0,0,0,6.28,0,8.87,8.87,0,0,1,11.83,3.36c5.74,9.66-6.61,15-13.1,19.47-3.17,2.18-7.9-3.18-11.07-4.36Z"/><path class="cls-136" d="M626.45,559.27c0,6.88.06,6.33-6.85,5.9-15.4-1.6-30.77-3.37-46.09-5.42,0-.4,0-.79,0-1.19h52.78Z"/><path class="cls-137" d="M574.79,62.12l7.49,6.3c-.22,3.87-2.17,12.23-7.66,10.68l-1.76-.28c-2.08-4.46.32-9.14-.65-13.69C571.86,63.51,574,63.19,574.79,62.12Z"/><path class="cls-138" d="M491.78,505.65a6.64,6.64,0,0,1,.26-.79c1.08.19,2.47,1.48,2.8-.83,3.48-.49,2.09,3.7,4,4.2a4.29,4.29,0,0,1-1.14-3.71c1.75-4,3.35-1.5,5,.1a67.4,67.4,0,0,1,6.16,7.14c.95,1.31,2.48,2.27,2.49,4.15-2,2.36-3.62,5-6.09,6.85l-3.71-1.13C497.21,516.94,492.69,512.39,491.78,505.65Z"/><path class="cls-139" d="M498.35,504.61l.95,4.16c-2.9-.47-2.42-3.81-4.46-4.74-4.58-8.51-9.11-17.06-13.79-25.52-1.33-2.4-1.6-3.64,1.82-3.6q14.55.13,29.11,0c2.45,0,3.62,1.22,4.67,3.16,24.11,47.74,27.27,34.3-2.16,37.66-1.1-.41-2.19-.65-3.2.19l-3.2-3.72c.69-2.78,3.07-2.16,4.89-2.25,5-.22,10,0,15-.36-6.65-1.9-22.06,2.25-25.48-3.88l.53-.56c7.15-2.08,14.71.34,21.87-1.19-8.13-2-16.41.72-24.53-1.35C498.72,502.08,498,502.91,498.35,504.61Z"/><path class="cls-140" d="M598.74,55.57q1.17-4.93,2.35-9.87C606.13,47.62,604.37,56.56,598.74,55.57Z"/><path class="cls-141" d="M621.78,20.69c8.83,1.42,17.49,3.6,26.2,5.55,3.91.88,5.73,2.48,4.67,6.54-3.77.59-6.6-2.12-10-2.85-2.57-3.4-7.53-.63-10.52-3.56-3.59-4.46-11.67-2.06-13.16-6.56Z"/><path class="cls-142" d="M602.72,16.15c1.37-.34,3,.4,4.08-1.15l4.53-.05c0,1-.56,2,.15,2.9A16.18,16.18,0,0,1,602.72,16.15Z"/><path class="cls-143" d="M625.71,64.46c1.28,1.91-2.13,4.32.65,6.06-3.81,4-2-4.11-1.48-5.81Z"/><path class="cls-8" d="M573.77,453a16.64,16.64,0,0,1,5.61-2.26C578.23,453.29,576,453,573.77,453Z"/><path class="cls-122" d="M190.14,143c.56,6-4.87,13.13-10.68,14-2.13.31-3.2-1.76-5-2.06-3.94-2.69-9.48-6.36-6.31-11.73,1.72-3.18,4.64-4.28,8-3C182.09,142.48,184.37,136.37,190.14,143Z"/><path class="cls-32" d="M243.42,613c-6.26,0-12.53,0-18.79,0-4,.05-6.88-1.51-8.71-5.15s-4.06-7.42-6-11.19c-12.1-29.8,39.51-22.61,50.65-.57a104.22,104.22,0,0,1,6.59,11.9c1.75,3.49.88,4.89-3.11,5C257.2,613.13,250.31,613,243.42,613Z"/><path class="cls-32" d="M239.22,546.38l-4.95-7.24c1.22-19.36,33.65-8.07,40,2.88,6.21,8.91,3.19,16.46-7.56,17.74-5.61.67-11.38-.31-17,1.26a5.28,5.28,0,0,1-4.7-1.44c3.58-2.6,2.28-4.45-.9-6.23-1.73-1-3-2.68-4.73-3.78S239.24,547.43,239.22,546.38Z"/><path class="cls-144" d="M230.67,557.39c8.14,7.38,3.1,18-7.61,16.74-11.34,1.21-35.92-15.24-20.48-25.26,2.13-1.14,3.14.55,4.17,1.81C212.71,556.83,222.37,563.27,230.67,557.39Z"/><path class="cls-145" d="M230.67,557.39c-4.72,9.43-21.55-.53-25.45-6.8a3.65,3.65,0,0,0-2.65-1.72C210.48,543,225.05,548.37,230.67,557.39Z"/><path class="cls-146" d="M193.82,567.44c-22.2,2.6-25.2-17-11.08-13.2,5.09,1.56,9.77,3.69,9.77,10.25C192.51,565.3,193.21,566.11,193.82,567.44Z"/><path class="cls-147" d="M179.92,520.75c-1.88.13-2.62,2.55-5.56,1.69,2,1.61,3.79,1.58,4.65,3-9.38-2.13-17.24-7.1-24.53-13.12,2.78-.68.61-1.62.08-2.37-1.75-2.48-5.19-3.67-5.57-7.22,1.64-.35,2.68.73,3.6,1.73A59.88,59.88,0,0,0,171,518.36c-2.06-1-16.35-13.31-13.71-16.39,1-.48,2.15,3.12,3-.15,1.47-.35,2.34.59,3.12,1.54a84.78,84.78,0,0,0,14.68,14.09C179.1,518.22,180.57,519,179.92,520.75Z"/><path class="cls-148" d="M188.25,477.59c2.17-1.25,2.45-2.93,1.15-5a49.15,49.15,0,0,1,19.76,11.44c-1.69,0-1.4,1-1.07,2.07-5.66-.13-9.36-4.42-13.38-7.58,3.76,4.51,13,8.07,12.72,14.86-1.07-.3-2.14-.61-2.15,1.12-1.3.34-2-.54-2.73-1.35a159.36,159.36,0,0,0-12.87-12.86C188.87,479.59,188,478.87,188.25,477.59Z"/><path class="cls-149" d="M126.33,485c-.58,0-1.6,2.07-1.67.05-.28-7.34-.2-14.69-.25-22-.26-3.2,4.45-2.69,5.27-.3C133.57,470.15,128.21,477.75,126.33,485Z"/><path class="cls-150" d="M228.79,554.74a35.16,35.16,0,0,0-25.26-6.83c-.46-4.08,1.51-5.62,5.43-5.6C216.57,542.36,226.31,548.36,228.79,554.74Z"/><path class="cls-151" d="M83.13,409.91A17.35,17.35,0,0,1,71,402.3c-1.94-2.94-.52-5.56,3-5.23,5.31.5,10,2.73,13,7.39C89,407.72,87.69,409.9,83.13,409.91Z"/><path class="cls-152" d="M60.11,409.86a17.73,17.73,0,0,1-11.72-7.7c-1.77-2.74,0-5.72,3.2-5.17,5.11.86,10,2.71,12.85,7.56C66.4,407.91,65.08,409.85,60.11,409.86Z"/><path class="cls-153" d="M261.37,661.51c2.95,1.91,6.33.55,9.81.28,4.61-.84,13.49,6.23,9.26,10.87-2.14,1.86-3.9,5.59-7,4.59-5.3-1.86-18.8-5.85-16.78-13.4C257.39,662,259.13,661.71,261.37,661.51Z"/><path class="cls-154" d="M231.81,661.53c2.88,1.81,6.22.59,9.71.26,4.74-.95,13.15,6.12,9.32,10.91-2.06,1.93-4.05,5.54-7,4.57-5.61-2.1-18.36-5.38-16.75-13.38C227.73,662,229.53,661.72,231.81,661.53Z"/><path class="cls-155" d="M202.3,661.58c2.84,1.74,6.24.44,9.73.21,4.54-.92,13.53,6.63,9.08,11-2.23,1.72-3.76,5.49-7.16,4.41-5.28-2-18.44-5.74-16.44-13.28C198.2,661.94,199.91,661.68,202.3,661.58Z"/><path class="cls-156" d="M333,665.37a41.35,41.35,0,0,0,.51-5.52c0-1.48-1.23-3.22.76-4.08,1.8-.78,4,.23,4.4,1.67,2,7.79,8.14,5.68,13.4,6.17,2.66.25,6.68.2,4,5.2-.89,1.67,1,3.09,1.78,4.56,1.46,2.89,1,4.57-2.51,4.44C344.74,678.53,335.39,677.83,333,665.37Z"/><path class="cls-157" d="M333,665.37q3.39,5.32,6.8,10.65c-7.29,2.05-11.35.08-12.76-7C326,663.65,330.65,666,333,665.37Z"/><path class="cls-10" d="M305.26,695.56c8.64,1.43,17.33,5.84,23,14.87,3.08,4.88.7,8.93-5.12,8.58a31,31,0,0,1-24.95-14.45C294.71,699.27,297.13,695.53,305.26,695.56Z"/><path class="cls-158" d="M147.12,375.92c-.93-4.24,1.93-3.71,4.49-3.57,2,1.79,8.16,4,6.19,7.36C154.7,382.75,149.5,378,147.12,375.92Z"/><path class="cls-143" d="M627.44,69.56c.87-1.51,1.9-2.79,3.88-2.73C630.31,68.14,629.3,69.46,627.44,69.56Z"/><path class="cls-159" d="M362.33,745.37c.86,0,1.93-.45,2.43.55.29.58-.26,1.15-.94,1.21-1.26.11-1.4-.82-1.49-1.76Z"/><path class="cls-160" d="M368.8,747.23c-3.26-.35,2-3.45,1.21-.84C369.75,746.83,369.08,747,368.8,747.23Z"/><path class="cls-161" d="M361.35,751.9c-.79-.45-1.85-.83-.9-2,.23-.28,1-.51,1.21-.36,1.14.89-.08,1.58-.31,2.37Z"/><path class="cls-162" d="M372.67,745.37c.79.1,1.85-.59,2.23.65.06.22-.44.82-.78.92-1.41.4-1.33-.7-1.45-1.57Z"/><path class="cls-70" d="M289.13,745.49c1,.07,2.35-.58,2.36,1.16,0,.4-.8,1.13-1.23,1.14-1.77,0-1.22-1.29-1.14-2.3Z"/><path class="cls-163" d="M279.59,748.14c-1.68-2.31-.07-2.5,1.67-2.6C281.48,746.9,280.53,747.52,279.59,748.14Z"/><path class="cls-164" d="M297.42,749.89c1.16.08,2,.43,1.78,1.85C297.52,752.3,296.12,751.87,297.42,749.89Z"/><path class="cls-165" d="M263.55,745.25c.85.24,2.05.23,1.6,1.63a1.22,1.22,0,0,1-1.81.84c-1.15-.76,0-1.61.17-2.43Z"/><path class="cls-166" d="M274,745.46c3,0,1.19,3-1,2.59A3.13,3.13,0,0,1,274,745.46Z"/><path class="cls-66" d="M268.24,751.86c-.85,0-1.93.49-2.41-.56-.28-.6.33-1.13,1-1.19,1.29-.13,1.41.8,1.41,1.76Z"/><path class="cls-66" d="M344.05,746.06c.1,1.32-2.47,1.8-2.59.52C341.64,745.63,343.57,744.57,344.05,746.06Z"/><path class="cls-159" d="M305.1,745.52c2.76.1,1.54,1.31.68,2.43C304.19,747.52,304.24,746.63,305.1,745.52Z"/><path class="cls-167" d="M568.17,293.28c.56,2.82-4.8,2.87-2.52,5.52,4.07,3.81,6.84-7.37,17.22,3.17-6.58-1.23-12.28-2.61-17.45.81.12-.59.55-1.51.32-1.74C561.26,296.76,565.22,295.19,568.17,293.28Z"/><path class="cls-168" d="M418,361.05c.11,3.05-4.64,3.08-4.66,0C413.11,358,418.15,357.76,418,361.05Z"/><path class="cls-169" d="M421.46,361.19c-.16-3.24,4.8-2.83,4.34.08S421.42,364,421.46,361.19Z"/><path class="cls-170" d="M467.79,45c10.29.46,10.46,16.55,0,17C457.55,62,457.68,45.14,467.79,45Z"/><path class="cls-171" d="M225,344a9.94,9.94,0,0,1,0,9.51C225,350.32,225,347.15,225,344Z"/><path class="cls-172" d="M253.25,284.76c-1.9.14-2.15,2.42-3.77,2.91-1.29,1.17-4.74-1.55-6.44-1.87C247.48,280.07,247.48,280.07,253.25,284.76Z"/><path class="cls-173" d="M247.76,287.74l1.72-.07q.45,3.29.91,6.56c-4.34-2,2.55,12.44,2.93,14-1.49-.34-1.65-2-2.75-2.75A24.41,24.41,0,0,1,247.76,287.74Z"/><path class="cls-111" d="M247.59,288.61c-.25,5.84,1.11,11.4,3,16.87C246.39,300.42,245.84,294.72,247.59,288.61Z"/><path class="cls-174" d="M270.24,138.19c5.36,2.7,10.26,6.87,15.18,10.36,4.44,3.34,4.47,6.47.1,9.75-4,3-8.06,5.92-12.19,8.73s-8,1.25-8.19-3.73c-.28-6.7-.14-13.43,0-20.15C265.15,140.19,267.07,138.74,270.24,138.19Z"/><path class="cls-175" d="M559.68,187.38c.09-13.83,21.05-13.82,21,.15C580.53,201.83,559.64,201.65,559.68,187.38Z"/><path class="cls-176" d="M607.67,652.37c-3.58-18.22-8.47-36.33-11.31-54.58-2.55-12.27,13.67-16.57,22.29-22-.54,1.3-.58,1.82-.85,2-12.26,7.93-9.39,20-8.65,31.48,1,16.26.08,33,.37,48.7C608.6,656.88,609.47,654,607.67,652.37Z"/><path class="cls-8" d="M585.2,479.62c.42-2.65-1.45-7.49,2.16-8.24,1.5-.34,2,1,2.11,2a46.55,46.55,0,0,1,0,13c-.13,1-.61,2.3-2.11,2C583.64,487.49,585.68,482.37,585.2,479.62Z"/><path class="cls-8" d="M624.78,505.82c-.84,2.09,1.2,5.86-1.7,5.95-3.55.11-2.18-3.81-2.11-6s-1.65-6.19,1.58-6.23C626.53,499.52,623.57,503.8,624.78,505.82Z"/><path class="cls-8" d="M566.75,557.91c-.37-3.18-1.08-5.24.14-7a2.17,2.17,0,0,1,2.81.76C570.78,554.17,568.74,555.42,566.75,557.91Z"/><path class="cls-8" d="M588.86,449.25a22.16,22.16,0,0,1,11.32,0A14.19,14.19,0,0,1,588.86,449.25Z"/><path class="cls-8" d="M621.82,480.6c-.16,1.52.29,3.2-1.84,3.35a1.58,1.58,0,0,1-1.84-1.62c-.18-2.08,1.69-1.91,2.8-2.55C622.89,478.67,620.93,480.93,621.82,480.6Z"/><path class="cls-8" d="M583,500.25c0-1.22.73-1.06,1.27-1.06,1.62-.31,1.89,2.12.41,2.14C584.06,501.22,583.5,500.58,583,500.25Z"/><path class="cls-8" d="M582.48,451.63c1.34-.38,2.53-.8,3.66.06A3.9,3.9,0,0,1,582.48,451.63Z"/><path class="cls-8" d="M573.8,455c-2.5,0-2.93-2.43,0-2C573.79,453.65,573.8,454.34,573.8,455Z"/><path class="cls-177" d="M182.73,480.4c2.85,3.15,6,6.28,7.8,10.2.68,2.07,4.63,3.46,1.89,6.15-1.71,1.67-9.16,0-10.24-1.94-3.92-7.13-7.73-14.31-11.57-21.48-.35-.65-1.06-1.44-.21-2.05C174.1,469.31,180.55,477.71,182.73,480.4Z"/><path class="cls-178" d="M191.54,499.81c8.07-2.48,9.74,16.73,10.65,22.11.86,3.87-3.21,5-4.63,1.31-3.3-6-6.62-12-9.87-18.09C184.84,499.85,184.89,499.8,191.54,499.81Z"/><path class="cls-177" d="M173.64,497c-2,.23-4.1-.21-5.24-2.53-3.19-6.51-5.34-13.29-5.39-20.61-.54-3.16,2.27-4,3.43-.93,3.72,6.84,7.49,13.66,11.12,20.55C179.22,496.64,178.7,497.09,173.64,497Z"/><path class="cls-179" d="M191.08,523.73c-2.77-2.63-6.76-4-8.32-7.67a104.17,104.17,0,0,1-7.52-9.37c-1.63-1.81-4-4.14-2.29-6.63,1.15-1.63,8.14.05,9.21,2,2.82,5.2,5.48,10.49,8.2,15.75C191,519.31,194.59,523.78,191.08,523.73Z"/><path class="cls-180" d="M151,475c-.35,6.94-1,13.33,1.85,19.36.49,1.07.55,2.43-1,2.51-2.48.13-5.28,1.22-7-2C141.33,488.16,143.62,479.7,151,475Z"/><path class="cls-181" d="M159,472.1c0,8.58,2.42,15.41,5.38,22.09.52,1.17.54,2.32-.87,2.59C151.69,500,152.82,478.68,159,472.1Z"/><path class="cls-182" d="M206.56,524.63A70.34,70.34,0,0,0,201.85,504c-.49-1.21-2.32-3.32-.25-4C213.64,496,212.34,517.79,206.56,524.63Z"/><path class="cls-183" d="M157.3,502c4.08,7.82,11.18,12.79,17.44,18.61-10.56-3.1-18.35-10.19-25.75-17.85-.55-1.37-1.87-3.12,1.16-3C152.72,499.75,155.49,499.42,157.3,502Z"/><path class="cls-184" d="M179.92,520.75a130.8,130.8,0,0,1-19.65-18.93c1.78-3.34,5.92-3.49,8.21,0A105.65,105.65,0,0,0,181,517.89c.84.89,2.68,1.23,1.68,3.11a1.67,1.67,0,0,1-1.88-.21A6.48,6.48,0,0,1,179.92,520.75Z"/><path class="cls-185" d="M188.25,477.59a121.11,121.11,0,0,1,17,16.93c.88,4.07-7.35,3-8.33,0a80,80,0,0,0-12.25-16.18,1.23,1.23,0,0,1,.11-1.91C185.94,475.7,187.08,477.35,188.25,477.59Z"/><path class="cls-186" d="M220.42,505.71c-.06,5.39-.34,12.48-6.23,14.86.91-6.7.95-13.07-1.84-19.1-.49-1.05.31-1.84,1.36-2C218.74,498.32,219.27,501.77,220.42,505.71Z"/><path class="cls-187" d="M197.82,482.2a6.67,6.67,0,0,1-3-2.82.85.85,0,0,1,1.15-.11l12.08,6.85c1.95,2.2,4,4.31,5.81,6.63.82,1.06,2.88,2.46,1.1,3.84a4.15,4.15,0,0,1-5.18-.38C205.78,491.62,203.18,485.56,197.82,482.2Z"/><path class="cls-188" d="M183.07,520.7,181,517.89a1.65,1.65,0,0,0,1.76-1.83,10.77,10.77,0,0,1,4.58,4.7,1.87,1.87,0,0,0-1.78,1A1.48,1.48,0,0,1,183.07,520.7Z"/><path class="cls-189" d="M186.34,476.67c-1.15,0-1.67.57-1.64,1.69-2.27-1.11-3.67-3.05-5.58-5.57A10.63,10.63,0,0,1,186.34,476.67Z"/><path class="cls-190" d="M182.73,480.4a57.54,57.54,0,0,1-8.41-8.54A15.18,15.18,0,0,1,182.73,480.4Z"/><path class="cls-191" d="M191.08,523.73c2.24-2.27-1.37-3.83-.72-5.9,1.74,1,2.17,2.94,3,4.54.48.87,1.68,2.06.59,2.83C192.71,526.1,191.82,524.73,191.08,523.73Z"/><path class="cls-188" d="M175.24,506.69a24.55,24.55,0,0,1,6.62,8.41A15.92,15.92,0,0,1,175.24,506.69Z"/><path class="cls-190" d="M188.35,487a10.42,10.42,0,0,1-3.92-4.71C186.51,483.22,188.16,484.51,188.35,487Z"/><path class="cls-192" d="M184.56,521.76l1,0c1,.86,2.49,2.85,0,2.85l-2.88-1.93C183.09,521.86,184,522.17,184.56,521.76Z"/><path class="cls-193" d="M184.56,521.76l-1.84.89-1.92-1.86,2.26-.09Z"/><path class="cls-188" d="M185.6,524.58a1.9,1.9,0,0,0,.87-1.94c.92.48,2.16,1,1.36,2.25C187.23,525.83,186.26,525.33,185.6,524.58Z"/><path class="cls-194" d="M900.92,380.21a57.73,57.73,0,0,1-11.59,9.23c-3.11-2.65-2.94-7.76-7-9.9,1.84-4,6.17-4.6,9.23-6.92,4.23-2.87,7.12-2.49,10.27,1.35A9.78,9.78,0,0,1,900.92,380.21Z"/><path class="cls-195" d="M789.06,375.14c1.86-.11,3.19,1.27,4.83,1.78a1.12,1.12,0,0,1,.1.86A5.91,5.91,0,0,1,789.06,375.14Z"/><path class="cls-196" d="M517.22,472.83c5.71-2.11,11.6-.59,17.4-.86a1.19,1.19,0,0,1,1.3,1.5c-.25,1.19-1.31,1.16-2.22,1.17-5.12,0-10.24,0-15.36.06C518,474.07,517.59,473.45,517.22,472.83Z"/><path class="cls-197" d="M521.15,480.05c1.38-1,15.68-3.6,14.75.17-.27,2.06-11.53.77-13.93,1.21Z"/><path class="cls-198" d="M524.89,486.8c3.05-1.74,6.35-.57,9.53-.78a1.35,1.35,0,0,1,1.56,1.35c-.1,2.57-7.87,1-10,1.41A2.31,2.31,0,0,1,524.89,486.8Z"/><path class="cls-199" d="M528.6,493.48c1.4,0,2.8-.13,4.19,0,1.1.08,2.94-.59,2.94,1.23-.41,2.71-4.3,1.2-6.1.86C528.71,495.14,528.67,494.3,528.6,493.48Z"/><path class="cls-200" d="M486.59,495.34c-2.28,1.21-4.34.88-6.53-1,1.73-1.55,3.67-.68,5.35-1C485.8,494,486.19,494.69,486.59,495.34Z"/><path class="cls-201" d="M483.6,489.69a5,5,0,0,1-2.66-4.89A7.8,7.8,0,0,1,483.6,489.69Z"/><path class="cls-202" d="M793.87,364.71c-5,1.66-15.84-2-18.36-6.12-.85-1,.09-2.28,1.2-1.77,4.61,5.13,11.58,4.48,17.22,7.08A1.58,1.58,0,0,1,793.87,364.71Z"/><path class="cls-203" d="M965.91,474.21c-2.11,1.33-5.16,2.48-6.79-.24-1.27-1.81-.39-3.32,1-4.49,6.2-4.34-5.6-10.65.22-14.85a3.13,3.13,0,0,1,4.81,1.23c2,3.71,3.87,5.38,7.38,1.46,2.37-2.47,7.07,1.95,4.77,4.68-1.56,3.06-6.64,5.05-3.45,8.81,4.64,5.21-2.73,11.29-5.93,4.45C967.54,474.57,967.11,473.93,965.91,474.21Z"/><path class="cls-204" d="M901.09,374.15c-2.65-3.72-6.23-1.63-9.49-1.54-1.39-20.35,14.18-19.47,11.66,1C903.25,375.58,902.24,375.63,901.09,374.15Z"/><path class="cls-205" d="M901.09,374.15c1.54.6,1.83-.2,1.81-1.53,0-2.9,0-5.8,0-8.69,1.64,5.71,2.1,11.27-2,16.28C901,378.19,901,376.17,901.09,374.15Z"/><path class="cls-206" d="M966.83,404.47c-.39-.1-.82-.08-1-.27-2.74-3.91-6.2-7.42-7.42-12.2-.87-3.14,4.68-5.18,6.19-2.36,2.19,3.68,3.65,1.88,5.32-.38,2.14-2.4,4.74-7.79,8.53-5.1a3.27,3.27,0,0,1,.93,4.92C975.26,394.16,971.59,400,966.83,404.47Z"/><path class="cls-207" d="M632.13,26.37a10.16,10.16,0,0,1,5.71,1.79c-2.12,0-3,1.95-4.35,3C633,29.53,632.58,28,632.13,26.37Z"/><path class="cls-208" d="M574.62,79.1c3.78-.29,5.45-6.74,7.82-5.75-.07,1.62-1.65,3-.86,4.76C580,81.91,578.56,82.12,574.62,79.1Z"/><path class="cls-209" d="M582.44,73.35l-2.17.87a9.6,9.6,0,0,1,2-5.8C583.87,70,583.53,71.67,582.44,73.35Z"/><path class="cls-210" d="M474.16,415.51c0,8.3-.06,16.6,0,24.89,0,3.71-1.34,5.3-5.29,5.26q-23-.26-46,0c-3.72,0-5.07-1.5-5.06-5q.06-25.59,0-51.19c0-3,1.26-4.18,4.23-4.17,15.81.06,31.63.1,47.44,0,4,0,4.71,2.12,4.7,5.34C474.14,398.92,474.16,407.21,474.16,415.51Z"/><path class="cls-8" d="M508.83,385c7.83,0,15.66.13,23.48-.06,3.3-.08,4.81.64,4.69,4.37-.31,9.66.89,8.2-8.27,8.24-14.41.08-28.81-.07-43.21.09-3.5,0-5.06-.63-4.88-4.62.4-9.35-1-7.9,8-8C495.37,385,502.1,385,508.83,385Z"/><path class="cls-211" d="M499.64,422.51l-.88-5.7c2.12-6.82-11.18-4.86-12.41-13.34,3.24-3,5.92,1,8.94.71,6.13.65,11.72,3,17.11,5.74,5,2.24,5.11,8.71,7.89,13a12.82,12.82,0,0,1-9.67,8.15C506,429.93,499,428.69,499.64,422.51Z"/><path class="cls-212" d="M517.35,416.81c-4.85-8.31-14.49-8.48-22.06-12.63,3.63-1.31,7.39-.55,11.08-.61,8.72-.12,17.44.11,26.15-.11,3.55-.08,4.57,1.2,4.49,4.61-.25,9.92.85,8.33-8.47,8.48C524.81,416.62,521.08,416.72,517.35,416.81Z"/><path class="cls-213" d="M499.64,422.51c1.5,6.19,7.5,5.68,11.7,7.84.8,1.47,2,2.84,1.14,4.69-9.38.06-18.76,0-28.14.2-2.5,0-3.71-.61-3.66-3.39.2-11.3-1.09-8.91,8.65-9.17C492.77,422.59,496.21,422.56,499.64,422.51Z"/><path class="cls-214" d="M486.35,403.47c4.94,8.7,20.29,7,12.41,13.34-4.79-.08-9.59-.31-14.39-.2-2.88.07-4-1-3.69-3.81C480.94,407.72,478.94,402.39,486.35,403.47Z"/><path class="cls-215" d="M507.85,460.55c-8,0-16,0-24,0-1.38,0-3.43.19-3.43-1.52,0-2,2.16-1.25,3.39-1.25q24.18-.09,48.38,0c1.23,0,3.38-.81,3.43,1.2,0,1.74-2,1.56-3.38,1.57Q520.06,460.57,507.85,460.55Z"/><path class="cls-216" d="M512.48,435c-.6-1.51-2.27-2.76-1.14-4.69,3.4-2,6-4.9,8.95-7.44,1.75-1.59,3.63-1.34,5.55-.39.08,2.26,5,2.78,2.19,6.09l-9.65,8.6C515.48,439,514.46,435.73,512.48,435Z"/><path class="cls-217" d="M529.28,450.24l1.43,1.31c-.75,2-2.52,1.5-4,1.5q-21.14,0-42.28,0c-1.41,0-3.85.67-3.74-1.47.09-2,2.51-1.27,4-1.28Q507,450.21,529.28,450.24Z"/><path class="cls-218" d="M523,443.55l1.09,1.26a9.91,9.91,0,0,1-2.61.76q-19.47.06-38.92,0c-.74,0-1.59.1-2-.78C483.06,442.46,513.93,441.56,523,443.55Z"/><path class="cls-219" d="M535.56,466.56H480.73c0-.33,0-.65,0-1h54.83Z"/><path class="cls-220" d="M528,428.61c1.58-2.86-3.19-3.44-2.19-6.09,10.65.25,13.81,1,10.41,12.76C532.81,433.92,530.88,430.7,528,428.61Z"/><path class="cls-221" d="M424.63,451.91c2.43-.41,6.27-1.43,6.12,3.41-.1,3.25-3.27,4.82-6.25,5.3C418.43,460,414.22,450.85,424.63,451.91Z"/><path class="cls-222" d="M437.49,451.49c2.67,1.62,8.1-2.36,8.43,3.71.17,3.21-3.13,5-5.77,5.22C435,461.34,430,452.1,437.49,451.49Z"/><path class="cls-223" d="M462.64,481.26c-2.8,0-5.59,0-8.39,0-1.05,0-2.41.06-2.32-1.53.06-1.2,1.19-1.26,2.13-1.26h17.7c.94,0,2.07.11,2.1,1.3,0,1.55-1.31,1.48-2.37,1.49C468.54,481.29,465.59,481.27,462.64,481.26Z"/><path class="cls-224" d="M428.84,481.28c-2.79,0-5.59,0-8.39,0-1.05,0-2.41.05-2.32-1.53.06-1.2,1.19-1.27,2.13-1.27q8.85,0,17.71,0c.95,0,2.07.11,2.1,1.3,0,1.55-1.31,1.49-2.37,1.5C434.75,481.31,431.79,481.28,428.84,481.28Z"/><path class="cls-225" d="M463.13,450.26c1.88.39,10.73-1.06,10.55,1.15a1.48,1.48,0,0,1-1.5,1.49q-9.54.11-19.08,0c-2-.63-1.27-2.87.71-2.62C456.92,450.24,460,450.26,463.13,450.26Z"/><path class="cls-226" d="M463.34,492.52c2.48,0,5-.07,7.45,0,1.09,0,2.95-.56,2.82,1.34-.1,1.48-1.77,1.46-3,1.47-5.28,0-10.57.07-15.84,0-1.15,0-2.91.33-2.8-1.49s1.84-1.29,3-1.31C457.75,492.48,460.54,492.52,463.34,492.52Z"/><path class="cls-227" d="M429.8,492.58c2,.39,10-1.09,10.23,1.16.15,1.28-.84,1.55-1.81,1.56q-8.93,0-17.86,0c-.79,0-1.71-.25-1.82-1.15C417.89,491.32,427.82,493,429.8,492.58Z"/><path class="cls-228" d="M429,471.86c1.93.36,10.67-.93,10.82.93.21,1.23-.81,1.72-1.72,1.72-6.1.06-12.2,0-18.29,0a1.43,1.43,0,0,1-1.48-1.5C418.21,470.84,427.13,472.25,429,471.86Z"/><path class="cls-229" d="M462.43,467.08c-2.07-.43-10.55,1.21-10.53-1.33,0-.91.79-1.32,1.62-1.33q9.15,0,18.3,0c.82,0,1.68.46,1.68,1.31C473.45,468.26,464.56,466.65,462.43,467.08Z"/><path class="cls-230" d="M452.22,458.1H474C469.5,461.17,456.49,461.49,452.22,458.1Z"/><path class="cls-231" d="M439.71,487.44H418.47v-1H439.7Z"/><path class="cls-232" d="M452.26,472.32h21.23c-7,1.92-14.13,1.38-21.2,1.37Z"/><path class="cls-233" d="M439.72,466.7H418.49c7.05-1.91,14.13-1.38,21.2-1.36Z"/><path class="cls-231" d="M473.51,487.55H452.28c7-2.15,14.13-1.48,21.2-1.54Z"/><path class="cls-234" d="M360.63,481.92h22c0,.42,0,.85,0,1.27-7.36,1.14-14.74.68-22.12.24Z"/><path class="cls-235" d="M357.41,482.52a20.77,20.77,0,0,1-13.53.11A22.17,22.17,0,0,1,357.41,482.52Z"/><path class="cls-236" d="M344,487.84c4.39-1.43,8.84-1.16,13.32-.17C352.94,489.19,348.47,488.83,344,487.84Z"/><path class="cls-237" d="M344.15,474.55c4.34-1.4,8.7-1,13.07-.13A25.73,25.73,0,0,1,344.15,474.55Z"/><path class="cls-238" d="M357.23,469.87H344.09c4.33-1.93,8.71-1.38,13.07-1.44C357.18,468.91,357.2,469.39,357.23,469.87Z"/><path class="cls-236" d="M371.83,487.32a13.24,13.24,0,0,1-11.51,0Z"/><path class="cls-8" d="M353,515.94c6.61,1.16,8.47-7.78,17.66-1.32,1.72,1.24,3.37,3,5.82,1.54,0,3.5,3.15,4.22,5.26,5.75,4.2,3,9.19,5,12.57,9.16a4.2,4.2,0,0,1-2.71.46c-19.09-.42-38.55.84-57.45-.45,0-1.91,1.46-2.5,2.8-3.32,4.34-2.66,8.63-5.4,12.92-8.14C351.25,518.72,353,518.06,353,515.94Z"/><path class="cls-239" d="M334.13,531.08h60.16c-.26,1.77-1.64.89-2.44.9q-28.83,0-57.66,0A6.36,6.36,0,0,1,334.13,531.08Z"/><path class="cls-240" d="M388.8,496.36c2.09-1.61,4.19-.53,6.29,0a15.7,15.7,0,0,1-5.54,5.59c-1.29-1.25-.66-3-1.13-4.45A.88.88,0,0,1,388.8,496.36Z"/><path class="cls-126" d="M388.8,496.36c-.11,1.89.95,3.74-.13,5.61,0,1.9-.58,3.45-2.69,3.94,3-3.21.57-7.63,2.48-11.07C388.57,495.35,388.69,495.85,388.8,496.36Z"/><path class="cls-127" d="M388.67,502c0-1.57.07-3.14.1-4.71,1.29,1.38.61,3.09.78,4.66Z"/><path class="cls-241" d="M339.64,498.42c.42,4.61-4.55.55-4.81-1.71-.22-1,1.14-1.27,2.1-1.29C339,495.38,339.64,496.6,339.64,498.42Z"/><path class="cls-242" d="M975.29,323.55c.56,3.52-4.6,5.05-6.27,2.21-1.37-2.6-2.8-3.44-5.37-1.34-1.46,1.19-3,.4-4.16-.84-4-5.31,7-5.2,0-14.06-1.59-2.19-1.48-4.58,1.15-6,6.15-3.32,5.21,10.12,10.93,3.31,3.13-4.08,9,1.91,5.09,4.93-3.68,3.17-5.22,6.37-1.61,10.55C975.33,322.63,975.24,323.23,975.29,323.55Z"/><path class="cls-243" d="M504.3,507.58c7.49,0,15,.05,22.46,0,2.37,0,4.23.49,5.46,3.79-6.35,0-12.32-.07-18.29,0-1.95,0-4.08-.72-5.84.82Z"/><path class="cls-244" d="M498.35,504.61c-1.33-2.41.32-2.64,2-2.65,8.21,0,16.42,0,24.63,0,2.16,0,3,1.23,3.7,2.86-8.7,1.44-17.62-.62-26.23.89v0C500.83,506.34,500.78,500.94,498.35,504.61Z"/><path class="cls-245" d="M524.57,497c-10,1.16-19.34-1.42-28.79-.74-2.78.24-2.7-3,.09-2.72q12.17,0,24.34,0C522.14,493.54,523.26,494.86,524.57,497Z"/><path class="cls-246" d="M488.55,486c9.53,0,18.26,0,27,0,1.39,0,3.24-.08,3.29,1.74a2.22,2.22,0,0,1-3.38,1.9C506.54,481.66,495,496.31,488.55,486Z"/><path class="cls-247" d="M516.49,483.63H488c9.47-1.95,19-1.14,28.51-1.48C516.52,482.64,516.51,483.14,516.49,483.63Z"/><path class="cls-248" d="M525.2,500.58H497.45c0-.31,0-.62,0-.92h27.75Z"/><path class="cls-249" d="M495.84,478.48c-.1,4.25-3.37,2.61-5.43,2.7s-5,1.21-5-2.71A23.31,23.31,0,0,1,495.84,478.48Z"/><path class="cls-250" d="M495.84,478.48H485.46c-.1-1.75,1.26-.93,1.91-.94,8.4-.06,16.8,0,25.26,0-.21,1.13-.91.87-1.75,1a4.19,4.19,0,0,1-5.68,0h-.89c-1.59,1.31-3.17,1-4.74,0Z"/><path class="cls-251" d="M502.48,505.66c2.85-1.82,6-.75,9-.85,5.73-.19,11.47-.05,17.21,0-2.51,1.89-5.39.8-8.08.87C514.58,505.81,508.53,505.67,502.48,505.66Z"/><path class="cls-252" d="M505.2,478.48h5.68C510.88,482.13,505.19,482.07,505.2,478.48Z"/><path class="cls-252" d="M499.57,478.48h4.74c-.1,1.17.05,2.5-1.65,2.68C500.66,481.38,500.31,479.71,499.57,478.48Z"/><path class="cls-253" d="M508.69,491.84c1.39-1.49,2.86-1.34,4.7-.55C511.87,493.31,510.2,492.22,508.69,491.84Z"/><path class="cls-254" d="M491.61,492.21c2.13-2,3.35-1.5,4.9-1C495.3,493.28,493.88,492.22,491.61,492.21Z"/><path class="cls-255" d="M521.51,491.15c-2,1.69-3.23,1.61-4.7.59C518,490,519.35,490.85,521.51,491.15Z"/><path class="cls-256" d="M500.51,491.8c1.67-1.5,2.89-1.09,4.55-.67C503.76,493,502.49,492.64,500.51,491.8Z"/><path class="cls-257" d="M196,479.27c-2,.43-3.41-.47-4.44-2.51C193.87,476.68,195.43,477.08,196,479.27Z"/><path class="cls-258" d="M197.82,482.2a4,4,0,0,1,3.64,3A6.46,6.46,0,0,1,197.82,482.2Z"/><path class="cls-9" d="M424.22,442.41c-2.9.19-3.13-2.66-1.5-4.13,3.54-4.14,7-8.37,10.6-12.46,10.29-11.67,10.27-11.61-.62-23.21-3.3-3.52-6.37-7.26-9.41-11-.86-1.06-2.79-2.48-.92-3.92,1.38-1.06,2.53.61,3.49,1.58a165.32,165.32,0,0,1,14.58,17c4,5.2,4.52,5.44,8.8.68,4.79-5.32,9.29-10.91,13.91-16.38,1.23-1.2,2.74-4.21,4.71-2.83,1.3,1.11.66,2.55-.3,3.74q-6.87,8.87-14.44,17.16c-6.34,6.81-4.82,6.16.48,12.94,4.32,5.52,8.89,10.84,13.38,16.22,1.15,1.38,2.58,3,.8,4.4-1.59,1.23-2.7-.7-3.68-1.88C437.41,409.72,452,415,424.22,442.41Z"/><path class="cls-259" d="M483,395.86h51v.46H482.83Z"/></g></g></svg>