<svg xmlns="http://www.w3.org/2000/svg" viewBox="0 0 414.28 410.12"><defs><style>.cls-1{fill:#409;}.cls-2{fill:#ea27c2;}</style></defs><g id="Layer_2" data-name="Layer 2"><g id="Layer_1-2" data-name="Layer 1"><path class="cls-1" d="M317.62,36.73C267.24,18.38,217,16.81,167.43,38.42c-34.32,14.95-61,39.24-80.78,70.89C47,172.72,51.19,255.22,96.88,315.78c50.91,67.48,122.32,85.72,222.9,56.94-52.58,46.06-171.29,58.71-252-15.18C-13.75,283-23.63,157.47,48.51,72.92,123.64-15.13,244.14-18.66,317.62,36.73Z"/><path class="cls-2" d="M157.56,338.15c71.11,25.34,132.94,14.1,179.67-45.76,38.39-49.17,38.24-115.28,4.3-168.48C306.41,68.85,254,53.16,160.35,69.65,210,29.94,305.85,25.86,369.29,91.33c60.64,62.57,59.41,166.73-.25,228.38C304.2,386.7,201.1,377.22,157.56,338.15Z"/><path class="cls-1" d="M213.28,173c9.43-18.85,17.67-35.69,26.23-52.36,9.87-19.22,26.84-27.82,47.6-24.51,16.77,2.67,30.38,17,34.21,35.75,2,9.57-.51,18.38-4.59,26.7Q284.66,223.9,252.23,289c-7.76,15.61-20.72,24.43-37.91,24.75-17.68.33-31.6-8-39.67-24C152.84,246.43,131,203.09,110,159.4c-11.63-24.12-3.1-49,19-59.87,21.92-10.75,46.56-1.41,58.77,22.48C196.09,138.27,204.13,154.67,213.28,173Zm-55.07,65.93c7.9,16.17,15,31.19,22.52,46,6.81,13.44,17.61,20.83,33.12,20.65,15.07-.18,25.23-7.86,31.69-20.82,21.26-42.62,42.61-85.19,63.4-128,10.32-21.25,3.93-41.19-14.87-50.22s-38.18-1.4-48.71,19.48c-13.92,27.61-27.84,55.22-41.41,83C194.88,227.58,182.62,241,158.21,238.93Z"/></g></g></svg>